{"glyphs":{"0":{"ha":3471,"x_min":0,"x_max":0,"o":"m 2758 -72 b 2737 -92 2746 -72 2737 -81 b 2758 -113 2737 -104 2746 -113 b 2778 -92 2769 -113 2778 -104 b 2758 -72 2778 -81 2769 -72 z m 2540 41 b 2499 41 2527 41 2513 41 l 2502 -116 b 2543 -116 2515 -116 2529 -116 b 2540 41 2542 -63 2541 -11 z m 1070 41 b 1029 41 1056 41 1043 41 l 1031 -116 b 1072 -116 1045 -116 1058 -116 b 1070 41 1071 -63 1071 -11 z m 654 41 b 613 41 640 41 626 41 l 615 -116 b 656 -116 628 -116 642 -116 b 654 41 655 -63 654 -11 z m 439 41 b 399 41 426 41 412 41 l 401 -116 b 442 -116 414 -116 428 -116 b 439 41 441 -63 440 -11 z m 1698 45 b 1657 9 1698 21 1678 14 l 1654 62 b 1671 62 1659 62 1665 62 l 1671 62 b 1698 45 1687 62 1698 62 z m 3070 14 b 3051 -54 3070 -15 3063 -38 b 3029 -70 3043 -66 3035 -70 b 2995 -7 3003 -70 2995 -42 l 2995 2 b 3041 74 2998 62 3027 74 b 3070 14 3065 74 3070 39 z m 2678 14 b 2659 -54 2678 -15 2671 -38 b 2637 -70 2651 -66 2643 -70 b 2602 -7 2611 -70 2602 -42 l 2602 2 b 2649 74 2605 62 2634 74 b 2678 14 2673 74 2678 39 z m 2381 77 b 2439 0 2419 77 2439 57 b 2388 -68 2439 -46 2419 -61 l 2378 77 z m 2539 100 l 2498 100 l 2498 58 l 2539 59 z m 1069 100 l 1028 100 l 1028 58 l 1069 59 z m 652 100 l 612 100 l 612 58 l 653 59 z m 438 100 l 397 100 l 397 58 l 439 59 z m 3131 101 l 3131 -96 l 3172 -96 l 3172 12 b 3198 -37 3181 -4 3190 -21 b 3236 -37 3211 -37 3223 -37 b 3266 15 3246 -19 3256 -2 b 3266 -115 3266 -28 3266 -72 l 3307 -115 l 3307 101 l 3266 101 l 3266 99 l 3218 14 l 3172 99 l 3172 101 z m 1092 101 l 1092 -96 l 1133 -96 l 1133 12 b 1160 -37 1142 -4 1151 -21 b 1197 -37 1172 -37 1184 -37 b 1227 15 1207 -19 1217 -2 b 1227 -115 1227 -28 1227 -72 l 1268 -115 l 1268 101 l 1227 101 l 1227 99 l 1179 14 l 1133 99 l 1133 101 z m 2224 -6 l 2224 8 b 2228 90 2224 48 2228 88 b 2189 95 2215 91 2202 93 b 2183 8 2186 95 2183 48 l 2183 -8 b 2244 -105 2184 -53 2191 -105 l 2245 -105 b 2297 -70 2272 -105 2288 -88 b 2317 98 2317 -30 2317 40 l 2317 101 l 2276 101 l 2276 98 b 2270 -19 2276 76 2274 -3 b 2245 -64 2267 -31 2261 -64 b 2224 -6 2221 -64 2224 -29 z m 2163 101 b 2030 96 2118 99 2074 98 b 2031 56 2030 82 2031 69 b 2076 57 2047 56 2061 57 b 2080 -110 2077 2 2079 -54 b 2124 -109 2095 -110 2110 -109 l 2121 59 b 2165 61 2136 60 2150 61 b 2163 101 2164 74 2163 88 z m 1421 101 b 1287 96 1376 99 1332 98 b 1289 56 1288 82 1289 69 b 1334 57 1304 56 1319 57 b 1338 -110 1335 2 1337 -54 b 1382 -109 1352 -110 1367 -109 b 1379 59 1381 -53 1380 3 b 1422 61 1393 60 1408 61 b 1421 101 1422 74 1421 88 z m 807 101 b 674 96 763 99 718 98 b 676 56 675 82 675 69 b 721 57 691 56 706 57 b 725 -110 722 2 723 -54 b 769 -109 739 -110 754 -109 b 765 59 768 -53 767 3 b 809 61 780 60 794 61 b 807 101 809 74 808 88 z m 1739 47 b 1675 103 1739 84 1710 103 b 1611 101 1652 103 1632 101 b 1623 -114 1615 29 1619 -43 b 1665 -112 1637 -113 1651 -113 b 1660 -30 1663 -85 1661 -57 b 1739 47 1698 -23 1739 -3 z m 931 -55 b 936 -24 931 -39 935 -26 b 897 -11 923 -20 910 -15 b 890 -55 896 -13 890 -32 b 944 -117 890 -89 908 -117 b 988 -97 963 -117 979 -108 b 1008 -7 1010 -71 1008 -50 b 1006 107 1008 18 1006 103 l 965 105 b 967 3 965 105 967 28 b 965 -49 967 -21 966 -42 b 948 -76 964 -58 958 -76 b 931 -55 934 -76 931 -70 z m 296 -37 b 269 91 288 -6 269 62 l 228 90 b 237 27 228 88 228 60 b 273 -103 247 -10 255 -66 b 319 -99 288 -101 303 -100 b 324 -88 320 -96 322 -92 b 380 93 345 -41 364 51 l 342 107 b 296 -37 324 72 311 8 z m 1861 109 b 1790 107 1837 109 1814 108 b 1757 107 1779 107 1768 107 b 1760 -117 1757 32 1759 -42 b 1862 -115 1794 -117 1828 -116 b 1861 -75 1861 -101 1861 -88 b 1800 -76 1840 -75 1820 -75 l 1799 -21 b 1847 -20 1815 -21 1831 -20 b 1846 21 1846 -6 1846 7 b 1799 19 1830 20 1814 20 l 1798 67 b 1862 69 1819 68 1840 69 b 1861 109 1861 83 1861 96 z m 1945 -77 b 1907 -56 1931 -77 1909 -57 l 1879 -85 b 1945 -117 1884 -91 1918 -117 l 1946 -117 b 1997 -66 1972 -116 1997 -94 b 1987 -33 1997 -53 1993 -42 b 1947 15 1977 -15 1961 1 b 1936 41 1939 24 1936 33 b 1958 70 1936 59 1949 70 b 1974 50 1967 70 1973 54 l 2014 61 b 1956 110 2008 81 1989 110 l 1955 110 b 1894 43 1916 109 1894 77 b 1914 -11 1894 25 1900 6 b 1950 -53 1928 -27 1943 -41 b 1955 -66 1954 -59 1955 -62 l 1955 -67 b 1945 -77 1955 -72 1950 -77 z m 526 -77 b 488 -56 512 -77 490 -57 l 460 -85 b 526 -117 465 -91 499 -117 l 527 -117 b 578 -66 553 -116 578 -94 b 569 -33 578 -53 574 -42 b 528 15 558 -15 542 1 b 517 41 520 24 517 33 b 539 70 517 59 530 70 b 556 50 548 70 554 54 l 595 61 b 537 110 589 81 570 110 l 536 110 b 475 43 497 109 475 77 b 495 -11 475 25 481 6 b 531 -53 509 -27 524 -41 b 536 -66 535 -59 536 -62 l 536 -67 b 526 -77 536 -72 531 -77 z m 3029 -111 b 3087 -77 3056 -111 3074 -95 b 3111 14 3103 -52 3111 -23 b 3042 115 3111 65 3093 115 b 2954 4 2999 115 2957 77 l 2954 -7 b 3029 -111 2954 -64 2978 -111 z m 2796 -7 b 2856 -110 2796 -55 2807 -110 b 2915 -74 2884 -110 2905 -86 b 2881 -50 2904 -66 2892 -58 b 2868 -62 2879 -52 2877 -56 b 2855 -70 2863 -67 2857 -69 b 2837 -7 2841 -67 2837 -29 b 2852 59 2837 24 2844 47 b 2872 74 2860 70 2867 74 b 2889 63 2875 74 2883 70 b 2902 47 2898 54 2900 49 l 2937 67 b 2873 115 2928 83 2906 115 b 2796 -7 2817 115 2796 55 z m 2637 -111 b 2694 -77 2663 -111 2682 -95 b 2719 14 2711 -52 2719 -23 b 2649 115 2719 65 2700 115 b 2561 4 2607 115 2565 77 l 2561 -7 b 2637 -111 2561 -64 2586 -111 z m 1562 117 b 1505 40 1543 91 1524 66 b 1477 113 1496 64 1487 89 b 1439 99 1465 108 1452 104 b 1479 -9 1452 63 1466 27 b 1477 -105 1479 -41 1478 -73 b 1521 -106 1492 -105 1506 -105 b 1522 -6 1521 -72 1522 -40 b 1595 93 1547 27 1571 60 z m 2383 117 l 2382 117 b 2334 115 2366 117 2350 116 b 2349 -109 2339 41 2344 -34 b 2480 4 2428 -106 2480 -81 b 2383 117 2480 79 2442 117 z m 3321 213 b 3300 192 3309 213 3300 204 b 3321 172 3300 181 3309 172 b 3341 192 3332 172 3341 181 b 3321 213 3341 204 3332 213 z m 2522 323 b 2481 323 2509 323 2495 323 l 2483 166 b 2524 166 2497 166 2511 166 b 2522 323 2523 219 2523 271 z m 1995 323 b 1954 323 1981 323 1967 323 l 1956 166 b 1997 166 1969 166 1983 166 b 1995 323 1996 219 1995 271 z m 2072 326 l 2086 283 l 2063 282 z m 1733 329 b 1694 294 1733 305 1714 299 l 1691 344 b 1707 345 1695 344 1702 345 b 1733 329 1722 345 1733 344 z m 1071 296 b 1052 228 1071 267 1064 244 b 1030 212 1044 216 1036 212 b 996 275 1004 212 996 240 l 996 284 b 1042 356 999 344 1028 356 b 1071 296 1066 356 1071 321 z m 617 359 b 675 282 655 359 675 339 b 624 214 675 236 655 221 l 614 359 z m 2521 382 l 2480 382 l 2480 340 l 2521 341 z m 1993 382 l 1953 382 l 1953 340 l 1994 341 z m 1132 383 l 1132 186 l 1173 186 l 1173 294 b 1200 245 1182 278 1191 261 b 1237 245 1212 245 1224 245 b 1267 297 1247 263 1257 280 b 1267 167 1267 254 1267 210 l 1308 167 l 1308 383 l 1267 383 l 1267 381 l 1219 296 l 1173 381 l 1173 383 z m 1774 330 b 1706 385 1774 370 1745 385 b 1649 382 1687 385 1667 383 b 1658 165 1652 310 1655 237 b 1699 166 1672 165 1686 166 b 1697 217 1699 183 1698 200 b 1716 207 1703 214 1710 210 b 1773 194 1744 197 1770 195 l 1778 234 b 1734 244 1776 234 1751 237 b 1712 258 1728 247 1720 252 b 1774 330 1742 266 1774 288 z m 2985 389 l 2944 389 l 2945 246 l 2864 344 l 2824 344 l 2825 163 l 2867 163 l 2866 279 l 2946 180 b 2948 178 2947 179 2948 178 b 2950 179 2949 178 2950 179 l 2987 179 z m 305 389 l 263 389 l 265 246 l 183 344 l 143 344 l 145 163 l 186 163 l 185 279 l 266 180 b 268 178 266 179 267 178 b 269 179 268 178 269 179 l 306 179 z m 3261 391 b 3191 390 3238 391 3214 390 b 3157 389 3179 390 3168 390 b 3161 165 3158 314 3160 240 b 3262 167 3195 165 3229 166 b 3261 207 3262 181 3262 194 b 3201 206 3241 207 3221 207 l 3200 261 b 3247 262 3216 261 3232 262 b 3246 303 3247 276 3247 289 b 3199 301 3231 302 3215 302 l 3199 349 b 3262 351 3220 350 3241 351 b 3261 391 3262 365 3262 378 z m 2805 391 b 2734 390 2781 391 2758 390 b 2701 389 2723 390 2712 390 b 2704 165 2702 314 2703 240 b 2806 167 2738 165 2772 166 b 2805 207 2805 181 2805 194 b 2744 206 2784 207 2765 207 l 2744 261 b 2791 262 2759 261 2775 262 b 2790 303 2791 276 2790 289 b 2743 301 2774 302 2758 302 l 2742 349 b 2806 351 2763 350 2784 351 b 2805 391 2805 365 2805 378 z m 1630 391 b 1560 390 1607 391 1583 390 b 1527 389 1549 390 1538 390 b 1530 165 1527 314 1529 240 b 1632 167 1564 165 1598 166 b 1630 207 1631 181 1631 194 b 1570 206 1610 207 1590 207 l 1569 261 b 1617 262 1585 261 1601 262 b 1616 303 1616 276 1616 289 b 1569 301 1600 302 1584 302 l 1568 349 b 1632 351 1589 350 1610 351 b 1630 391 1631 365 1631 378 z m 1331 391 l 1331 195 l 1372 195 l 1372 303 b 1399 254 1381 287 1390 270 b 1436 255 1411 254 1423 254 b 1466 306 1446 272 1456 289 b 1466 176 1466 263 1466 220 l 1507 176 l 1507 391 l 1466 391 l 1466 390 l 1418 305 l 1372 390 l 1372 391 z m 430 391 b 359 390 406 391 383 390 b 326 389 348 390 337 390 b 330 165 327 314 328 240 b 431 167 364 165 398 166 b 430 207 431 181 430 194 b 370 206 410 207 390 207 l 369 261 b 416 262 385 261 401 262 b 415 303 416 276 416 289 b 368 301 399 302 384 302 l 367 349 b 431 351 389 350 410 351 b 430 391 431 365 430 378 z m 3072 205 b 3034 226 3058 205 3035 225 l 3005 197 b 3072 165 3011 191 3045 165 l 3073 165 b 3124 216 3099 166 3124 188 b 3114 249 3124 229 3120 240 b 3074 297 3104 267 3088 283 b 3063 323 3066 306 3063 315 b 3085 352 3063 341 3075 352 b 3101 332 3094 352 3100 336 l 3141 343 b 3083 392 3135 363 3116 392 l 3082 392 b 3020 325 3043 391 3020 359 b 3041 271 3020 307 3027 288 b 3077 229 3055 255 3070 241 b 3082 216 3081 223 3082 220 l 3082 215 b 3072 205 3082 210 3077 205 z m 2543 275 b 2603 172 2543 227 2554 172 b 2661 208 2630 172 2652 196 b 2628 232 2650 216 2639 224 b 2615 220 2626 230 2624 226 b 2601 212 2609 215 2603 213 b 2584 275 2588 215 2584 253 b 2599 341 2584 306 2591 329 b 2619 356 2606 352 2614 356 b 2636 345 2621 356 2629 352 b 2648 329 2645 336 2647 331 l 2684 349 b 2619 397 2675 365 2652 397 b 2543 275 2564 397 2543 337 z m 2395 397 l 2355 395 b 2364 181 2358 324 2361 252 b 2460 175 2396 179 2428 177 b 2462 215 2460 188 2462 202 b 2403 219 2442 216 2423 218 b 2395 397 2400 278 2398 338 z m 2207 397 l 2167 395 b 2176 181 2170 324 2173 252 b 2272 175 2208 179 2240 177 b 2274 215 2272 188 2274 202 b 2215 219 2254 216 2235 218 b 2207 397 2212 278 2210 338 z m 1795 275 b 1854 172 1795 227 1806 172 b 1913 208 1882 172 1904 196 b 1880 232 1902 216 1891 224 b 1867 220 1878 230 1875 226 b 1853 212 1861 215 1855 213 b 1836 275 1840 215 1836 253 b 1850 341 1836 306 1842 329 b 1870 356 1858 352 1866 356 b 1888 345 1873 356 1881 352 b 1900 329 1896 336 1899 331 l 1936 349 b 1871 397 1926 365 1904 397 b 1795 275 1815 397 1795 337 z m 1030 171 b 1088 205 1057 171 1075 187 b 1112 296 1104 230 1112 259 b 1043 397 1112 347 1094 397 b 955 286 1000 397 959 359 l 955 275 b 1030 171 955 218 979 171 z m 797 275 b 857 172 797 227 808 172 b 916 208 885 172 907 196 b 882 232 905 216 893 224 b 869 220 880 230 878 226 b 856 212 864 215 858 213 b 838 275 842 215 838 253 b 853 341 838 306 845 329 b 873 356 861 352 868 356 b 890 345 876 356 884 352 b 903 329 899 336 901 331 l 938 349 b 874 397 929 365 907 397 b 797 275 818 397 797 337 z m 2097 397 b 2041 392 2078 396 2059 394 b 2015 183 2032 323 2023 253 b 2055 178 2028 182 2042 180 b 2063 243 2058 200 2061 221 l 2093 245 b 2111 176 2099 222 2105 199 b 2151 186 2124 179 2137 182 b 2097 397 2133 256 2115 326 z m 552 399 b 482 397 529 399 505 398 b 448 397 471 397 459 397 b 452 173 449 322 451 247 b 553 175 486 173 520 174 b 552 215 553 188 553 202 b 492 213 532 215 512 214 l 491 268 b 539 270 507 269 523 270 b 537 310 538 283 538 297 b 490 309 522 310 506 309 l 490 357 b 553 359 511 358 532 358 b 552 399 553 372 553 386 z m 619 399 l 618 399 b 570 397 602 399 586 398 b 585 173 575 323 580 248 b 716 286 664 176 716 201 b 619 399 716 361 678 399 z m 3342 359 b 3355 344 3351 359 3355 354 b 3336 312 3355 336 3350 324 b 3298 236 3310 290 3298 268 b 3298 231 3298 233 3298 233 l 3338 235 l 3338 238 b 3363 281 3338 254 3346 266 b 3396 344 3384 299 3396 323 b 3342 400 3396 375 3374 400 b 3294 376 3320 400 3304 387 b 3278 350 3283 364 3278 351 l 3278 349 l 3315 333 b 3342 359 3317 339 3330 359 z m 2950 492 b 2930 472 2939 492 2930 483 b 2950 451 2930 460 2939 451 b 2971 472 2962 451 2971 460 b 2950 492 2971 483 2962 492 z m 1535 608 l 1549 565 l 1526 564 z m 652 609 b 611 573 652 585 632 578 l 608 626 b 625 626 614 626 619 626 l 626 626 b 652 609 641 626 652 626 z m 917 611 b 878 576 917 587 898 581 l 876 626 b 892 627 880 626 886 627 b 917 611 907 627 917 626 z m 2413 578 b 2395 510 2413 549 2406 526 b 2372 494 2386 498 2378 494 b 2338 557 2346 494 2338 522 l 2338 566 b 2384 638 2341 626 2370 638 b 2413 578 2409 638 2413 603 z m 1237 578 b 1218 510 1237 549 1230 526 b 1196 494 1210 498 1202 494 b 1161 557 1170 494 1161 522 l 1161 566 b 1208 638 1164 626 1193 638 b 1237 578 1232 638 1237 603 z m 1860 558 l 1860 572 b 1864 654 1860 612 1864 652 l 1825 659 b 1819 572 1822 659 1819 612 l 1819 556 b 1880 459 1820 511 1827 459 l 1881 459 b 1934 494 1908 459 1925 476 b 1953 662 1953 534 1953 604 l 1953 665 l 1913 665 l 1913 662 b 1906 545 1913 640 1910 561 b 1881 500 1904 533 1897 500 b 1860 558 1857 500 1861 535 z m 958 612 b 890 667 958 652 930 667 b 833 664 871 667 851 665 b 843 447 836 592 840 519 b 884 448 856 447 870 448 b 882 499 883 465 882 482 b 901 489 887 496 894 492 b 958 476 929 479 955 477 l 963 516 b 919 526 960 516 935 519 b 896 540 913 529 904 534 b 958 612 927 548 958 570 z m 693 611 b 629 667 693 648 665 667 b 566 665 606 667 586 665 b 577 450 569 593 573 521 b 619 452 591 451 605 451 b 614 534 617 479 616 507 b 693 611 652 541 693 561 z m 2634 671 l 2593 671 l 2595 528 l 2513 626 l 2473 626 l 2475 445 l 2516 445 l 2515 561 l 2596 462 b 2597 460 2596 461 2597 460 b 2599 461 2598 460 2599 461 l 2636 461 z m 1458 671 l 1417 671 l 1418 528 l 1336 626 l 1297 626 l 1298 445 l 1340 445 l 1338 561 l 1419 462 b 1421 460 1420 461 1421 460 b 1423 461 1422 460 1422 461 l 1460 461 z m 2215 673 b 2144 672 2191 673 2168 672 b 2111 671 2133 672 2122 672 b 2114 447 2111 596 2113 522 b 2216 449 2148 447 2182 448 b 2215 489 2215 463 2215 476 b 2154 488 2194 489 2174 489 l 2153 543 b 2201 544 2169 543 2185 544 b 2200 585 2200 558 2200 571 b 2153 583 2184 584 2168 584 l 2152 631 b 2216 633 2173 632 2194 633 z m 815 673 b 744 672 791 673 768 672 b 711 671 733 672 722 672 b 715 447 712 596 713 522 b 816 449 749 447 783 448 b 815 489 816 463 815 476 b 755 488 795 489 775 489 l 754 543 b 801 544 770 543 786 544 b 800 585 801 558 800 571 b 753 583 784 584 769 584 l 752 631 b 816 633 774 632 795 633 b 815 673 816 647 815 660 z m 2025 487 b 1987 508 2011 487 1989 507 l 1959 479 b 2025 447 1964 473 1999 447 l 2026 447 b 2078 498 2053 448 2078 470 b 2068 531 2078 511 2073 522 b 2028 579 2057 549 2041 565 b 2016 605 2019 588 2016 597 b 2038 634 2016 623 2029 634 b 2055 614 2047 634 2053 618 l 2094 625 b 2036 674 2088 645 2069 674 l 2035 674 b 1974 607 1997 673 1974 641 b 1994 553 1974 589 1980 570 b 2031 511 2008 537 2023 523 b 2036 498 2034 505 2036 502 l 2036 497 b 2025 487 2036 492 2031 487 z m 1045 487 b 1007 508 1031 487 1008 507 l 979 479 b 1045 447 984 473 1018 447 l 1046 447 b 1097 498 1072 448 1097 470 b 1087 531 1097 511 1093 522 b 1047 579 1077 549 1061 565 b 1036 605 1039 588 1036 597 b 1058 634 1036 623 1048 634 b 1074 614 1067 634 1073 618 l 1114 625 b 1056 674 1108 645 1089 674 l 1055 674 b 993 607 1016 673 993 641 b 1014 553 993 589 1000 570 b 1050 511 1028 537 1043 523 b 1055 498 1054 505 1055 502 l 1055 497 b 1045 487 1055 492 1050 487 z m 2696 679 l 2655 677 b 2664 463 2658 606 2661 534 b 2760 457 2697 461 2728 459 b 2763 497 2761 470 2762 484 b 2704 501 2743 498 2724 500 b 2696 679 2701 560 2698 620 z m 2372 453 b 2430 487 2399 453 2417 469 b 2454 578 2446 512 2454 541 b 2385 679 2454 629 2436 679 b 2297 568 2342 679 2301 641 l 2297 557 b 2372 453 2297 500 2321 453 z m 1671 679 l 1630 677 b 1639 463 1633 606 1636 534 b 1735 457 1671 461 1703 459 b 1738 497 1736 470 1737 484 b 1679 501 1718 498 1699 500 b 1671 679 1676 560 1673 620 z m 1196 453 b 1253 487 1222 453 1241 469 b 1278 578 1270 512 1278 541 b 1208 679 1278 629 1259 679 b 1120 568 1166 679 1124 641 l 1120 557 b 1196 453 1120 500 1145 453 z m 1561 679 b 1504 674 1542 678 1523 676 b 1478 465 1496 605 1487 535 b 1519 460 1492 464 1505 462 b 1527 525 1522 482 1524 503 l 1556 528 b 1574 458 1562 504 1569 481 b 1614 468 1588 461 1601 464 b 1561 679 1596 538 1578 608 z m 2881 681 b 2824 604 2862 655 2843 630 b 2796 677 2815 628 2805 653 b 2758 663 2783 672 2770 668 b 2798 555 2771 627 2784 591 b 2796 459 2797 523 2796 491 b 2839 458 2811 459 2825 459 b 2841 558 2840 492 2840 524 b 2914 657 2865 591 2890 624 z m 1261 887 b 1220 887 1248 887 1234 887 l 1223 730 b 1263 730 1236 730 1250 730 b 1261 887 1263 783 1262 835 z m 2590 893 b 2551 858 2590 869 2571 863 l 2548 908 b 2564 909 2553 908 2559 909 b 2590 893 2580 909 2590 908 z m 2447 860 b 2428 792 2447 831 2440 808 b 2406 776 2420 780 2412 776 b 2371 839 2380 776 2371 804 l 2371 848 b 2418 920 2374 908 2403 920 b 2447 860 2442 920 2447 885 z m 1743 860 b 1724 792 1743 831 1736 808 b 1701 776 1715 780 1707 776 b 1667 839 1676 776 1667 804 l 1667 848 b 1714 920 1670 908 1699 920 b 1743 860 1738 920 1743 885 z m 1260 946 l 1219 946 l 1219 904 l 1260 905 z m 2118 947 b 1985 942 2073 945 2029 944 b 1986 902 1985 928 1986 915 b 2031 903 2001 902 2016 903 b 2035 736 2032 848 2034 792 b 2079 737 2050 736 2064 737 b 2076 905 2078 793 2077 849 b 2119 907 2090 906 2105 907 b 2118 947 2119 920 2118 934 z m 1036 947 b 903 942 991 945 947 944 b 904 902 903 928 904 915 b 949 903 920 902 935 903 b 953 736 951 848 952 792 b 998 737 968 736 983 737 b 994 905 996 793 995 849 b 1038 907 1009 906 1023 907 b 1036 947 1037 920 1037 934 z m 2631 894 b 2563 949 2631 934 2602 949 b 2506 946 2544 949 2524 947 b 2515 729 2509 874 2512 801 b 2556 730 2529 729 2543 730 b 2554 781 2556 747 2555 764 b 2574 771 2560 778 2567 774 b 2630 758 2602 761 2628 759 l 2635 798 b 2591 808 2633 798 2608 801 b 2569 822 2585 811 2577 816 b 2631 894 2599 830 2631 852 z m 1964 953 l 1922 953 l 1924 810 l 1842 908 l 1803 908 l 1804 727 l 1845 727 l 1844 843 l 1925 744 b 1927 742 1926 743 1926 742 b 1929 743 1927 742 1928 743 l 1966 743 z m 1348 769 b 1310 790 1334 769 1311 789 l 1281 761 b 1348 729 1287 755 1321 729 l 1349 729 b 1400 780 1375 730 1400 752 b 1390 813 1400 793 1396 804 b 1350 861 1380 831 1364 847 b 1339 887 1342 870 1339 879 b 1361 916 1339 905 1351 916 b 1377 896 1370 916 1376 900 l 1417 907 b 1359 956 1411 927 1392 956 l 1358 956 b 1296 889 1319 955 1296 923 b 1317 835 1296 871 1302 852 b 1353 793 1331 819 1346 805 b 1358 780 1357 787 1358 784 l 1358 779 b 1348 769 1358 774 1353 769 z m 2406 735 b 2463 769 2432 735 2451 751 b 2488 860 2480 794 2488 823 b 2418 961 2488 911 2470 961 b 2330 850 2376 961 2334 923 l 2330 839 b 2406 735 2330 782 2355 735 z m 1702 735 b 1759 769 1728 735 1747 751 b 1783 860 1775 794 1783 823 b 1714 961 1783 911 1765 961 b 1626 850 1672 961 1630 923 l 1626 839 b 1702 735 1626 782 1651 735 z m 2300 965 b 2234 963 2278 964 2256 963 b 2201 962 2223 963 2212 962 b 2204 738 2202 887 2203 813 l 2245 738 b 2244 834 2245 771 2244 802 b 2312 835 2267 834 2290 835 l 2312 876 b 2243 874 2289 875 2266 875 l 2242 923 b 2301 924 2262 923 2282 924 b 2300 965 2301 938 2300 951 z m 1596 965 b 1530 963 1574 964 1552 963 b 1497 962 1519 963 1508 962 b 1500 738 1497 887 1499 813 l 1541 738 b 1539 834 1541 771 1540 802 b 1608 835 1562 834 1585 835 l 1607 876 b 1539 874 1585 875 1562 875 l 1538 923 b 1597 924 1558 923 1577 924 b 1596 965 1596 938 1596 951 z m 1062 966 b 1055 742 1060 892 1057 817 b 1096 741 1069 742 1083 742 b 1099 822 1097 768 1098 795 l 1155 824 b 1153 750 1154 799 1154 774 b 1194 748 1167 749 1180 749 b 1201 965 1196 821 1198 893 b 1160 966 1187 966 1173 966 b 1157 862 1159 932 1157 897 l 1100 861 b 1103 965 1101 896 1102 931 b 1062 966 1089 966 1076 966 z "},"1":{"ha":240,"x_min":0,"x_max":0,"o":"m 80 33 b 172 51 112 8 155 22 b 204 616 188 82 208 462 b 191 701 202 671 201 683 b 83 725 171 739 116 758 b 35 520 58 697 44 631 b 44 148 28 431 33 234 b 80 33 54 69 59 50 z "},"2":{"ha":411,"x_min":0,"x_max":0,"o":"m 303 31 b 305 65 317 37 317 58 b 171 68 290 74 215 69 l 186 82 b 332 343 236 132 296 249 b 289 732 399 515 400 689 b 46 598 180 774 64 666 b 63 547 41 576 44 553 b 110 580 81 541 89 552 b 245 652 152 638 220 691 b 244 558 249 644 251 591 b 65 97 216 423 109 157 b 41 10 25 42 20 31 b 67 -2 48 4 58 -2 b 303 31 100 -2 283 24 z "},"3":{"ha":469,"x_min":0,"x_max":0,"o":"m 296 294 b 436 525 378 361 433 425 b 285 743 441 653 396 743 b 119 670 225 742 169 721 b 87 621 96 646 87 635 b 105 592 87 605 92 592 b 139 613 117 592 129 604 b 250 656 165 637 214 656 b 239 410 393 656 270 449 b 120 271 220 386 119 299 b 172 232 121 244 144 228 b 302 210 247 243 270 238 b 298 97 338 178 326 129 b 129 66 266 61 182 39 b 71 120 91 85 74 103 b 53 144 69 134 64 143 b 31 130 42 146 35 140 b 150 0 16 91 82 28 b 402 84 245 -39 368 -2 b 296 294 450 202 367 277 z "},"4":{"ha":436,"x_min":0,"x_max":0,"o":"m 251 171 b 309 26 256 81 252 19 b 371 104 341 30 368 66 b 391 689 396 372 409 601 b 335 719 385 713 357 722 b 294 686 318 716 306 708 b 249 327 249 598 254 359 b 162 303 234 322 175 301 b 207 449 166 317 193 403 b 245 682 239 560 260 648 b 185 725 235 704 219 727 b 77 502 120 722 110 631 b 31 285 44 367 32 311 b 85 218 29 244 46 218 b 246 248 115 218 216 241 b 251 171 247 235 249 204 z "},"5":{"ha":360,"x_min":0,"x_max":0,"o":"m 146 547 b 103 549 122 547 109 548 b 125 654 111 579 119 619 b 277 665 170 654 262 655 b 290 705 291 676 299 692 b 179 716 278 721 239 717 b 57 679 80 715 67 713 b 34 526 50 657 34 549 b 132 475 34 487 62 488 b 218 359 201 462 214 445 b 164 121 221 287 186 157 b 88 75 139 82 102 66 b 78 189 74 83 71 142 b 69 251 85 238 88 251 b 36 183 50 251 43 225 b 107 22 22 94 45 32 b 198 37 132 18 162 23 b 336 280 279 68 325 151 b 146 547 350 448 296 547 z "},"6":{"ha":400,"x_min":0,"x_max":0,"o":"m 271 703 b 143 610 211 702 172 655 b 53 335 106 551 68 421 b 137 24 27 194 71 52 b 276 59 181 6 236 20 b 354 188 306 88 338 142 b 300 397 381 270 369 378 b 190 360 256 409 212 379 b 265 631 199 422 234 565 b 294 653 274 646 288 653 b 321 681 310 651 321 659 b 271 703 321 698 292 703 z m 280 358 b 325 274 305 358 325 330 b 225 82 325 220 259 104 l 225 81 b 192 71 204 62 196 67 b 190 74 191 72 190 73 b 181 263 172 106 173 166 b 199 317 185 306 183 302 b 280 358 221 337 264 358 z "},"7":{"ha":376,"x_min":0,"x_max":0,"o":"m 205 76 b 293 350 231 131 236 142 b 332 678 310 411 356 626 b 271 729 320 702 292 725 b 124 711 228 737 180 716 b 45 702 85 708 52 705 b 51 648 17 691 35 657 b 217 634 58 644 182 639 b 135 320 208 595 152 396 b 119 4 94 135 46 20 b 205 76 159 -5 184 33 z "},"8":{"ha":328,"x_min":0,"x_max":0,"o":"m 184 703 b 50 545 86 699 46 631 b 111 332 53 476 90 381 b 29 142 68 280 30 189 b 139 2 27 61 74 3 b 227 34 167 2 197 12 b 234 392 312 97 286 221 b 231 434 224 429 224 425 b 255 477 236 441 246 460 b 184 703 315 593 303 707 z m 193 657 b 201 476 280 668 229 521 b 172 556 194 492 177 536 b 193 657 161 602 137 650 z m 130 289 b 172 174 140 269 163 207 b 153 53 186 121 174 64 b 86 95 121 36 96 64 b 97 219 78 119 83 186 b 130 289 108 248 122 276 z "},"9":{"ha":411,"x_min":0,"x_max":0,"o":"m 230 408 b 205 173 229 330 222 233 b 80 47 188 113 135 58 b 64 24 67 44 61 34 b 91 -1 66 13 77 3 b 172 23 110 -5 130 2 b 320 204 244 59 292 132 b 364 654 338 253 411 549 b 273 685 348 691 307 705 b 250 685 260 676 266 676 b 129 685 215 702 163 706 b 31 470 77 653 31 564 b 117 339 30 399 63 339 b 230 408 158 340 199 379 z m 130 402 b 227 576 127 471 214 578 l 231 576 b 230 478 231 546 230 513 b 130 402 210 459 159 407 z "}," ":{"ha":281,"x_min":0,"x_max":0,"o":""},"!":{"ha":204,"x_min":0,"x_max":0,"o":"m 158 686 b 72 705 139 713 104 722 b 27 485 33 684 24 627 b 45 191 29 389 39 222 b 71 139 51 163 57 147 b 142 180 103 122 134 147 b 176 519 154 224 174 422 b 158 686 178 624 175 662 z m 141 43 b 71 71 150 79 97 101 b 77 13 54 53 61 26 b 141 43 103 -9 135 17 z "},"\"":{"ha":256,"x_min":0,"x_max":0,"o":"m 164 590 b 224 714 219 550 226 690 b 207 745 222 730 219 737 b 156 736 189 758 168 753 b 154 608 139 709 155 629 b 164 590 153 601 158 594 z m 46 590 b 106 714 101 550 108 690 b 89 745 104 730 100 737 b 38 736 71 758 50 753 b 36 608 21 709 37 629 b 46 590 35 601 40 594 z "},"#":{"ha":579,"x_min":0,"x_max":0,"o":"m 483 704 b 399 715 464 732 425 739 b 357 578 380 699 372 668 b 346 513 353 553 350 533 b 261 512 318 513 290 512 b 257 739 296 669 299 717 b 157 654 205 766 175 719 b 127 508 149 624 139 572 b 31 501 64 506 41 508 b 43 464 14 489 23 464 b 120 466 56 465 80 465 b 95 313 112 421 103 362 b 31 307 57 312 39 313 b 26 278 21 300 19 286 b 89 271 36 264 57 270 b 71 100 74 166 71 138 b 95 24 71 57 72 37 b 155 57 120 10 141 30 b 212 273 186 114 197 196 l 303 275 b 275 116 294 221 281 147 b 293 18 262 50 261 29 b 384 125 327 6 353 34 b 428 278 398 164 411 209 l 443 278 b 554 301 482 279 557 271 b 544 315 553 308 547 313 b 457 321 532 323 520 322 b 439 320 451 321 445 321 b 471 473 451 371 462 425 b 554 496 506 473 557 470 b 544 510 553 503 547 507 b 478 516 533 517 525 517 b 492 635 485 560 491 607 b 483 704 494 682 494 688 z m 251 469 l 338 470 b 310 318 330 425 321 380 b 220 316 281 318 252 317 b 251 469 229 367 240 422 z "},"$":{"ha":389,"x_min":0,"x_max":0,"o":"m 110 690 b 46 470 33 625 13 545 b 151 298 64 427 111 364 b 147 59 149 195 148 117 b 117 64 133 56 122 57 b 87 141 101 90 95 111 b 67 178 81 164 81 174 b 39 131 42 184 34 159 b 146 4 48 76 70 13 b 156 -86 146 -60 146 -80 b 203 -56 180 -102 199 -79 b 206 8 204 -49 205 -28 b 294 61 238 15 266 32 b 351 249 347 118 367 181 b 268 401 341 289 324 319 b 219 467 253 424 237 444 b 223 645 221 528 222 582 b 292 600 257 646 275 638 b 344 603 307 567 341 567 b 224 730 348 660 297 727 b 223 777 224 744 223 766 b 169 784 222 806 176 814 b 164 720 167 776 166 760 b 110 690 145 713 124 702 z m 209 130 b 210 163 209 141 210 152 b 209 130 211 151 211 142 z "},"%":{"ha":603,"x_min":0,"x_max":0,"o":"m 513 227 b 476 111 509 176 492 126 b 458 139 461 96 455 117 b 507 261 460 156 492 270 b 513 227 510 260 515 247 z m 480 335 b 371 138 407 321 354 222 b 486 56 382 89 425 37 b 566 273 538 73 584 185 b 480 335 557 320 518 342 z m 191 583 b 172 455 206 552 202 485 b 143 459 152 434 148 440 b 191 583 135 488 162 545 z m 35 552 b 117 395 20 491 45 405 b 265 524 206 383 252 451 b 165 662 276 591 226 654 b 35 552 109 670 54 629 z m 412 689 b 316 532 372 689 356 657 b 176 92 268 383 227 262 b 176 0 159 35 158 12 b 232 28 196 -11 216 6 b 290 146 252 56 271 100 b 417 484 340 273 409 460 b 456 643 434 538 456 617 b 412 689 456 671 440 689 z "},"&":{"ha":492,"x_min":0,"x_max":0,"o":"m 287 703 b 156 437 177 702 138 577 l 160 402 l 145 390 b 26 121 52 316 8 218 b 200 -5 41 39 112 -21 b 263 19 220 -1 242 7 l 276 27 b 343 -53 295 3 327 -40 b 410 -30 371 -77 411 -63 b 355 108 410 -3 366 85 b 461 305 397 155 449 265 b 458 353 468 328 472 348 b 418 303 441 358 436 340 b 330 160 398 263 349 183 b 265 380 312 221 284 319 b 398 589 340 444 397 510 b 287 703 398 654 351 703 z m 326 647 b 320 552 351 633 342 592 b 244 469 300 516 271 485 b 240 513 243 473 241 488 b 326 647 235 585 265 680 z m 193 248 b 247 77 201 201 226 132 b 168 94 210 62 182 61 b 193 248 150 139 176 210 z "},"'":{"ha":138,"x_min":0,"x_max":0,"o":"m 46 590 b 106 714 101 550 108 690 b 89 745 104 730 100 737 b 38 736 71 758 50 753 b 36 608 21 709 37 629 b 46 590 35 601 40 594 z "},"(":{"ha":256,"x_min":0,"x_max":0,"o":"m 166 8 b 230 4 187 -8 224 -20 b 163 131 235 24 187 55 b 160 505 123 249 133 362 b 231 694 190 663 232 664 b 209 709 230 706 219 710 b 157 681 194 708 175 698 b 24 334 78 606 24 448 b 85 106 24 263 45 183 b 166 8 111 54 147 22 z "},")":{"ha":256,"x_min":0,"x_max":0,"o":"m 87 692 b 23 696 66 708 30 720 b 90 569 19 675 65 645 b 92 194 129 451 119 338 b 22 6 63 37 20 36 b 44 -9 23 -6 34 -10 b 96 19 59 -8 78 2 b 229 366 175 94 229 252 b 168 594 229 437 208 517 b 87 692 141 646 106 678 z "},"*":{"ha":288,"x_min":0,"x_max":0,"o":"m 170 639 b 198 644 174 640 186 643 b 259 666 242 647 259 649 b 198 687 259 685 240 685 l 177 687 l 200 715 b 221 780 220 741 252 780 b 173 737 210 780 193 759 l 145 704 b 117 750 136 726 133 742 b 85 745 104 758 93 753 b 89 702 74 734 81 724 l 95 686 l 78 686 b 28 662 53 686 27 680 b 76 637 29 644 56 637 l 78 637 l 62 621 b 43 566 37 593 27 579 b 100 601 59 553 74 569 l 119 624 l 133 597 b 176 551 146 572 151 552 b 170 639 209 551 173 628 z "},"+":{"ha":357,"x_min":0,"x_max":0,"o":"m 216 285 b 171 395 215 333 226 413 b 151 284 144 387 150 327 b 46 279 112 283 67 281 b 45 224 18 277 25 230 b 152 218 65 219 102 218 b 156 117 153 180 154 137 b 212 116 159 88 206 95 b 217 219 217 135 217 170 b 325 265 265 220 342 210 b 216 285 316 291 259 285 z "},",":{"ha":3471,"x_min":0,"x_max":0,"o":"m 2758 -72 b 2737 -92 2746 -72 2737 -81 b 2758 -113 2737 -104 2746 -113 b 2778 -92 2769 -113 2778 -104 b 2758 -72 2778 -81 2769 -72 z m 2540 41 b 2499 41 2527 41 2513 41 l 2502 -116 b 2543 -116 2515 -116 2529 -116 b 2540 41 2542 -63 2541 -11 z m 1070 41 b 1029 41 1056 41 1043 41 l 1031 -116 b 1072 -116 1045 -116 1058 -116 b 1070 41 1071 -63 1071 -11 z m 654 41 b 613 41 640 41 626 41 l 615 -116 b 656 -116 628 -116 642 -116 b 654 41 655 -63 654 -11 z m 439 41 b 399 41 426 41 412 41 l 401 -116 b 442 -116 414 -116 428 -116 b 439 41 441 -63 440 -11 z m 1698 45 b 1657 9 1698 21 1678 14 l 1654 62 b 1671 62 1659 62 1665 62 l 1671 62 b 1698 45 1687 62 1698 62 z m 3070 14 b 3051 -54 3070 -15 3063 -38 b 3029 -70 3043 -66 3035 -70 b 2995 -7 3003 -70 2995 -42 l 2995 2 b 3041 74 2998 62 3027 74 b 3070 14 3065 74 3070 39 z m 2678 14 b 2659 -54 2678 -15 2671 -38 b 2637 -70 2651 -66 2643 -70 b 2602 -7 2611 -70 2602 -42 l 2602 2 b 2649 74 2605 62 2634 74 b 2678 14 2673 74 2678 39 z m 2381 77 b 2439 0 2419 77 2439 57 b 2388 -68 2439 -46 2419 -61 l 2378 77 z m 2539 100 l 2498 100 l 2498 58 l 2539 59 z m 1069 100 l 1028 100 l 1028 58 l 1069 59 z m 652 100 l 612 100 l 612 58 l 653 59 z m 438 100 l 397 100 l 397 58 l 439 59 z m 3131 101 l 3131 -96 l 3172 -96 l 3172 12 b 3198 -37 3181 -4 3190 -21 b 3236 -37 3211 -37 3223 -37 b 3266 15 3246 -19 3256 -2 b 3266 -115 3266 -28 3266 -72 l 3307 -115 l 3307 101 l 3266 101 l 3266 99 l 3218 14 l 3172 99 l 3172 101 z m 1092 101 l 1092 -96 l 1133 -96 l 1133 12 b 1160 -37 1142 -4 1151 -21 b 1197 -37 1172 -37 1184 -37 b 1227 15 1207 -19 1217 -2 b 1227 -115 1227 -28 1227 -72 l 1268 -115 l 1268 101 l 1227 101 l 1227 99 l 1179 14 l 1133 99 l 1133 101 z m 2224 -6 l 2224 8 b 2228 90 2224 48 2228 88 b 2189 95 2215 91 2202 93 b 2183 8 2186 95 2183 48 l 2183 -8 b 2244 -105 2184 -53 2191 -105 l 2245 -105 b 2297 -70 2272 -105 2288 -88 b 2317 98 2317 -30 2317 40 l 2317 101 l 2276 101 l 2276 98 b 2270 -19 2276 76 2274 -3 b 2245 -64 2267 -31 2261 -64 b 2224 -6 2221 -64 2224 -29 z m 2163 101 b 2030 96 2118 99 2074 98 b 2031 56 2030 82 2031 69 b 2076 57 2047 56 2061 57 b 2080 -110 2077 2 2079 -54 b 2124 -109 2095 -110 2110 -109 l 2121 59 b 2165 61 2136 60 2150 61 b 2163 101 2164 74 2163 88 z m 1421 101 b 1287 96 1376 99 1332 98 b 1289 56 1288 82 1289 69 b 1334 57 1304 56 1319 57 b 1338 -110 1335 2 1337 -54 b 1382 -109 1352 -110 1367 -109 b 1379 59 1381 -53 1380 3 b 1422 61 1393 60 1408 61 b 1421 101 1422 74 1421 88 z m 807 101 b 674 96 763 99 718 98 b 676 56 675 82 675 69 b 721 57 691 56 706 57 b 725 -110 722 2 723 -54 b 769 -109 739 -110 754 -109 b 765 59 768 -53 767 3 b 809 61 780 60 794 61 b 807 101 809 74 808 88 z m 1739 47 b 1675 103 1739 84 1710 103 b 1611 101 1652 103 1632 101 b 1623 -114 1615 29 1619 -43 b 1665 -112 1637 -113 1651 -113 b 1660 -30 1663 -85 1661 -57 b 1739 47 1698 -23 1739 -3 z m 931 -55 b 936 -24 931 -39 935 -26 b 897 -11 923 -20 910 -15 b 890 -55 896 -13 890 -32 b 944 -117 890 -89 908 -117 b 988 -97 963 -117 979 -108 b 1008 -7 1010 -71 1008 -50 b 1006 107 1008 18 1006 103 l 965 105 b 967 3 965 105 967 28 b 965 -49 967 -21 966 -42 b 948 -76 964 -58 958 -76 b 931 -55 934 -76 931 -70 z m 296 -37 b 269 91 288 -6 269 62 l 228 90 b 237 27 228 88 228 60 b 273 -103 247 -10 255 -66 b 319 -99 288 -101 303 -100 b 324 -88 320 -96 322 -92 b 380 93 345 -41 364 51 l 342 107 b 296 -37 324 72 311 8 z m 1861 109 b 1790 107 1837 109 1814 108 b 1757 107 1779 107 1768 107 b 1760 -117 1757 32 1759 -42 b 1862 -115 1794 -117 1828 -116 b 1861 -75 1861 -101 1861 -88 b 1800 -76 1840 -75 1820 -75 l 1799 -21 b 1847 -20 1815 -21 1831 -20 b 1846 21 1846 -6 1846 7 b 1799 19 1830 20 1814 20 l 1798 67 b 1862 69 1819 68 1840 69 b 1861 109 1861 83 1861 96 z m 1945 -77 b 1907 -56 1931 -77 1909 -57 l 1879 -85 b 1945 -117 1884 -91 1918 -117 l 1946 -117 b 1997 -66 1972 -116 1997 -94 b 1987 -33 1997 -53 1993 -42 b 1947 15 1977 -15 1961 1 b 1936 41 1939 24 1936 33 b 1958 70 1936 59 1949 70 b 1974 50 1967 70 1973 54 l 2014 61 b 1956 110 2008 81 1989 110 l 1955 110 b 1894 43 1916 109 1894 77 b 1914 -11 1894 25 1900 6 b 1950 -53 1928 -27 1943 -41 b 1955 -66 1954 -59 1955 -62 l 1955 -67 b 1945 -77 1955 -72 1950 -77 z m 526 -77 b 488 -56 512 -77 490 -57 l 460 -85 b 526 -117 465 -91 499 -117 l 527 -117 b 578 -66 553 -116 578 -94 b 569 -33 578 -53 574 -42 b 528 15 558 -15 542 1 b 517 41 520 24 517 33 b 539 70 517 59 530 70 b 556 50 548 70 554 54 l 595 61 b 537 110 589 81 570 110 l 536 110 b 475 43 497 109 475 77 b 495 -11 475 25 481 6 b 531 -53 509 -27 524 -41 b 536 -66 535 -59 536 -62 l 536 -67 b 526 -77 536 -72 531 -77 z m 3029 -111 b 3087 -77 3056 -111 3074 -95 b 3111 14 3103 -52 3111 -23 b 3042 115 3111 65 3093 115 b 2954 4 2999 115 2957 77 l 2954 -7 b 3029 -111 2954 -64 2978 -111 z m 2796 -7 b 2856 -110 2796 -55 2807 -110 b 2915 -74 2884 -110 2905 -86 b 2881 -50 2904 -66 2892 -58 b 2868 -62 2879 -52 2877 -56 b 2855 -70 2863 -67 2857 -69 b 2837 -7 2841 -67 2837 -29 b 2852 59 2837 24 2844 47 b 2872 74 2860 70 2867 74 b 2889 63 2875 74 2883 70 b 2902 47 2898 54 2900 49 l 2937 67 b 2873 115 2928 83 2906 115 b 2796 -7 2817 115 2796 55 z m 2637 -111 b 2694 -77 2663 -111 2682 -95 b 2719 14 2711 -52 2719 -23 b 2649 115 2719 65 2700 115 b 2561 4 2607 115 2565 77 l 2561 -7 b 2637 -111 2561 -64 2586 -111 z m 1562 117 b 1505 40 1543 91 1524 66 b 1477 113 1496 64 1487 89 b 1439 99 1465 108 1452 104 b 1479 -9 1452 63 1466 27 b 1477 -105 1479 -41 1478 -73 b 1521 -106 1492 -105 1506 -105 b 1522 -6 1521 -72 1522 -40 b 1595 93 1547 27 1571 60 z m 2383 117 l 2382 117 b 2334 115 2366 117 2350 116 b 2349 -109 2339 41 2344 -34 b 2480 4 2428 -106 2480 -81 b 2383 117 2480 79 2442 117 z m 3321 213 b 3300 192 3309 213 3300 204 b 3321 172 3300 181 3309 172 b 3341 192 3332 172 3341 181 b 3321 213 3341 204 3332 213 z m 2522 323 b 2481 323 2509 323 2495 323 l 2483 166 b 2524 166 2497 166 2511 166 b 2522 323 2523 219 2523 271 z m 1995 323 b 1954 323 1981 323 1967 323 l 1956 166 b 1997 166 1969 166 1983 166 b 1995 323 1996 219 1995 271 z m 2072 326 l 2086 283 l 2063 282 z m 1733 329 b 1694 294 1733 305 1714 299 l 1691 344 b 1707 345 1695 344 1702 345 b 1733 329 1722 345 1733 344 z m 1071 296 b 1052 228 1071 267 1064 244 b 1030 212 1044 216 1036 212 b 996 275 1004 212 996 240 l 996 284 b 1042 356 999 344 1028 356 b 1071 296 1066 356 1071 321 z m 617 359 b 675 282 655 359 675 339 b 624 214 675 236 655 221 l 614 359 z m 2521 382 l 2480 382 l 2480 340 l 2521 341 z m 1993 382 l 1953 382 l 1953 340 l 1994 341 z m 1132 383 l 1132 186 l 1173 186 l 1173 294 b 1200 245 1182 278 1191 261 b 1237 245 1212 245 1224 245 b 1267 297 1247 263 1257 280 b 1267 167 1267 254 1267 210 l 1308 167 l 1308 383 l 1267 383 l 1267 381 l 1219 296 l 1173 381 l 1173 383 z m 1774 330 b 1706 385 1774 370 1745 385 b 1649 382 1687 385 1667 383 b 1658 165 1652 310 1655 237 b 1699 166 1672 165 1686 166 b 1697 217 1699 183 1698 200 b 1716 207 1703 214 1710 210 b 1773 194 1744 197 1770 195 l 1778 234 b 1734 244 1776 234 1751 237 b 1712 258 1728 247 1720 252 b 1774 330 1742 266 1774 288 z m 2985 389 l 2944 389 l 2945 246 l 2864 344 l 2824 344 l 2825 163 l 2867 163 l 2866 279 l 2946 180 b 2948 178 2947 179 2948 178 b 2950 179 2949 178 2950 179 l 2987 179 z m 305 389 l 263 389 l 265 246 l 183 344 l 143 344 l 145 163 l 186 163 l 185 279 l 266 180 b 268 178 266 179 267 178 b 269 179 268 178 269 179 l 306 179 z m 3261 391 b 3191 390 3238 391 3214 390 b 3157 389 3179 390 3168 390 b 3161 165 3158 314 3160 240 b 3262 167 3195 165 3229 166 b 3261 207 3262 181 3262 194 b 3201 206 3241 207 3221 207 l 3200 261 b 3247 262 3216 261 3232 262 b 3246 303 3247 276 3247 289 b 3199 301 3231 302 3215 302 l 3199 349 b 3262 351 3220 350 3241 351 b 3261 391 3262 365 3262 378 z m 2805 391 b 2734 390 2781 391 2758 390 b 2701 389 2723 390 2712 390 b 2704 165 2702 314 2703 240 b 2806 167 2738 165 2772 166 b 2805 207 2805 181 2805 194 b 2744 206 2784 207 2765 207 l 2744 261 b 2791 262 2759 261 2775 262 b 2790 303 2791 276 2790 289 b 2743 301 2774 302 2758 302 l 2742 349 b 2806 351 2763 350 2784 351 b 2805 391 2805 365 2805 378 z m 1630 391 b 1560 390 1607 391 1583 390 b 1527 389 1549 390 1538 390 b 1530 165 1527 314 1529 240 b 1632 167 1564 165 1598 166 b 1630 207 1631 181 1631 194 b 1570 206 1610 207 1590 207 l 1569 261 b 1617 262 1585 261 1601 262 b 1616 303 1616 276 1616 289 b 1569 301 1600 302 1584 302 l 1568 349 b 1632 351 1589 350 1610 351 b 1630 391 1631 365 1631 378 z m 1331 391 l 1331 195 l 1372 195 l 1372 303 b 1399 254 1381 287 1390 270 b 1436 255 1411 254 1423 254 b 1466 306 1446 272 1456 289 b 1466 176 1466 263 1466 220 l 1507 176 l 1507 391 l 1466 391 l 1466 390 l 1418 305 l 1372 390 l 1372 391 z m 430 391 b 359 390 406 391 383 390 b 326 389 348 390 337 390 b 330 165 327 314 328 240 b 431 167 364 165 398 166 b 430 207 431 181 430 194 b 370 206 410 207 390 207 l 369 261 b 416 262 385 261 401 262 b 415 303 416 276 416 289 b 368 301 399 302 384 302 l 367 349 b 431 351 389 350 410 351 b 430 391 431 365 430 378 z m 3072 205 b 3034 226 3058 205 3035 225 l 3005 197 b 3072 165 3011 191 3045 165 l 3073 165 b 3124 216 3099 166 3124 188 b 3114 249 3124 229 3120 240 b 3074 297 3104 267 3088 283 b 3063 323 3066 306 3063 315 b 3085 352 3063 341 3075 352 b 3101 332 3094 352 3100 336 l 3141 343 b 3083 392 3135 363 3116 392 l 3082 392 b 3020 325 3043 391 3020 359 b 3041 271 3020 307 3027 288 b 3077 229 3055 255 3070 241 b 3082 216 3081 223 3082 220 l 3082 215 b 3072 205 3082 210 3077 205 z m 2543 275 b 2603 172 2543 227 2554 172 b 2661 208 2630 172 2652 196 b 2628 232 2650 216 2639 224 b 2615 220 2626 230 2624 226 b 2601 212 2609 215 2603 213 b 2584 275 2588 215 2584 253 b 2599 341 2584 306 2591 329 b 2619 356 2606 352 2614 356 b 2636 345 2621 356 2629 352 b 2648 329 2645 336 2647 331 l 2684 349 b 2619 397 2675 365 2652 397 b 2543 275 2564 397 2543 337 z m 2395 397 l 2355 395 b 2364 181 2358 324 2361 252 b 2460 175 2396 179 2428 177 b 2462 215 2460 188 2462 202 b 2403 219 2442 216 2423 218 b 2395 397 2400 278 2398 338 z m 2207 397 l 2167 395 b 2176 181 2170 324 2173 252 b 2272 175 2208 179 2240 177 b 2274 215 2272 188 2274 202 b 2215 219 2254 216 2235 218 b 2207 397 2212 278 2210 338 z m 1795 275 b 1854 172 1795 227 1806 172 b 1913 208 1882 172 1904 196 b 1880 232 1902 216 1891 224 b 1867 220 1878 230 1875 226 b 1853 212 1861 215 1855 213 b 1836 275 1840 215 1836 253 b 1850 341 1836 306 1842 329 b 1870 356 1858 352 1866 356 b 1888 345 1873 356 1881 352 b 1900 329 1896 336 1899 331 l 1936 349 b 1871 397 1926 365 1904 397 b 1795 275 1815 397 1795 337 z m 1030 171 b 1088 205 1057 171 1075 187 b 1112 296 1104 230 1112 259 b 1043 397 1112 347 1094 397 b 955 286 1000 397 959 359 l 955 275 b 1030 171 955 218 979 171 z m 797 275 b 857 172 797 227 808 172 b 916 208 885 172 907 196 b 882 232 905 216 893 224 b 869 220 880 230 878 226 b 856 212 864 215 858 213 b 838 275 842 215 838 253 b 853 341 838 306 845 329 b 873 356 861 352 868 356 b 890 345 876 356 884 352 b 903 329 899 336 901 331 l 938 349 b 874 397 929 365 907 397 b 797 275 818 397 797 337 z m 2097 397 b 2041 392 2078 396 2059 394 b 2015 183 2032 323 2023 253 b 2055 178 2028 182 2042 180 b 2063 243 2058 200 2061 221 l 2093 245 b 2111 176 2099 222 2105 199 b 2151 186 2124 179 2137 182 b 2097 397 2133 256 2115 326 z m 552 399 b 482 397 529 399 505 398 b 448 397 471 397 459 397 b 452 173 449 322 451 247 b 553 175 486 173 520 174 b 552 215 553 188 553 202 b 492 213 532 215 512 214 l 491 268 b 539 270 507 269 523 270 b 537 310 538 283 538 297 b 490 309 522 310 506 309 l 490 357 b 553 359 511 358 532 358 b 552 399 553 372 553 386 z m 619 399 l 618 399 b 570 397 602 399 586 398 b 585 173 575 323 580 248 b 716 286 664 176 716 201 b 619 399 716 361 678 399 z m 3342 359 b 3355 344 3351 359 3355 354 b 3336 312 3355 336 3350 324 b 3298 236 3310 290 3298 268 b 3298 231 3298 233 3298 233 l 3338 235 l 3338 238 b 3363 281 3338 254 3346 266 b 3396 344 3384 299 3396 323 b 3342 400 3396 375 3374 400 b 3294 376 3320 400 3304 387 b 3278 350 3283 364 3278 351 l 3278 349 l 3315 333 b 3342 359 3317 339 3330 359 z m 2950 492 b 2930 472 2939 492 2930 483 b 2950 451 2930 460 2939 451 b 2971 472 2962 451 2971 460 b 2950 492 2971 483 2962 492 z m 1535 608 l 1549 565 l 1526 564 z m 652 609 b 611 573 652 585 632 578 l 608 626 b 625 626 614 626 619 626 l 626 626 b 652 609 641 626 652 626 z m 917 611 b 878 576 917 587 898 581 l 876 626 b 892 627 880 626 886 627 b 917 611 907 627 917 626 z m 2413 578 b 2395 510 2413 549 2406 526 b 2372 494 2386 498 2378 494 b 2338 557 2346 494 2338 522 l 2338 566 b 2384 638 2341 626 2370 638 b 2413 578 2409 638 2413 603 z m 1237 578 b 1218 510 1237 549 1230 526 b 1196 494 1210 498 1202 494 b 1161 557 1170 494 1161 522 l 1161 566 b 1208 638 1164 626 1193 638 b 1237 578 1232 638 1237 603 z m 1860 558 l 1860 572 b 1864 654 1860 612 1864 652 l 1825 659 b 1819 572 1822 659 1819 612 l 1819 556 b 1880 459 1820 511 1827 459 l 1881 459 b 1934 494 1908 459 1925 476 b 1953 662 1953 534 1953 604 l 1953 665 l 1913 665 l 1913 662 b 1906 545 1913 640 1910 561 b 1881 500 1904 533 1897 500 b 1860 558 1857 500 1861 535 z m 958 612 b 890 667 958 652 930 667 b 833 664 871 667 851 665 b 843 447 836 592 840 519 b 884 448 856 447 870 448 b 882 499 883 465 882 482 b 901 489 887 496 894 492 b 958 476 929 479 955 477 l 963 516 b 919 526 960 516 935 519 b 896 540 913 529 904 534 b 958 612 927 548 958 570 z m 693 611 b 629 667 693 648 665 667 b 566 665 606 667 586 665 b 577 450 569 593 573 521 b 619 452 591 451 605 451 b 614 534 617 479 616 507 b 693 611 652 541 693 561 z m 2634 671 l 2593 671 l 2595 528 l 2513 626 l 2473 626 l 2475 445 l 2516 445 l 2515 561 l 2596 462 b 2597 460 2596 461 2597 460 b 2599 461 2598 460 2599 461 l 2636 461 z m 1458 671 l 1417 671 l 1418 528 l 1336 626 l 1297 626 l 1298 445 l 1340 445 l 1338 561 l 1419 462 b 1421 460 1420 461 1421 460 b 1423 461 1422 460 1422 461 l 1460 461 z m 2215 673 b 2144 672 2191 673 2168 672 b 2111 671 2133 672 2122 672 b 2114 447 2111 596 2113 522 b 2216 449 2148 447 2182 448 b 2215 489 2215 463 2215 476 b 2154 488 2194 489 2174 489 l 2153 543 b 2201 544 2169 543 2185 544 b 2200 585 2200 558 2200 571 b 2153 583 2184 584 2168 584 l 2152 631 b 2216 633 2173 632 2194 633 z m 815 673 b 744 672 791 673 768 672 b 711 671 733 672 722 672 b 715 447 712 596 713 522 b 816 449 749 447 783 448 b 815 489 816 463 815 476 b 755 488 795 489 775 489 l 754 543 b 801 544 770 543 786 544 b 800 585 801 558 800 571 b 753 583 784 584 769 584 l 752 631 b 816 633 774 632 795 633 b 815 673 816 647 815 660 z m 2025 487 b 1987 508 2011 487 1989 507 l 1959 479 b 2025 447 1964 473 1999 447 l 2026 447 b 2078 498 2053 448 2078 470 b 2068 531 2078 511 2073 522 b 2028 579 2057 549 2041 565 b 2016 605 2019 588 2016 597 b 2038 634 2016 623 2029 634 b 2055 614 2047 634 2053 618 l 2094 625 b 2036 674 2088 645 2069 674 l 2035 674 b 1974 607 1997 673 1974 641 b 1994 553 1974 589 1980 570 b 2031 511 2008 537 2023 523 b 2036 498 2034 505 2036 502 l 2036 497 b 2025 487 2036 492 2031 487 z m 1045 487 b 1007 508 1031 487 1008 507 l 979 479 b 1045 447 984 473 1018 447 l 1046 447 b 1097 498 1072 448 1097 470 b 1087 531 1097 511 1093 522 b 1047 579 1077 549 1061 565 b 1036 605 1039 588 1036 597 b 1058 634 1036 623 1048 634 b 1074 614 1067 634 1073 618 l 1114 625 b 1056 674 1108 645 1089 674 l 1055 674 b 993 607 1016 673 993 641 b 1014 553 993 589 1000 570 b 1050 511 1028 537 1043 523 b 1055 498 1054 505 1055 502 l 1055 497 b 1045 487 1055 492 1050 487 z m 2696 679 l 2655 677 b 2664 463 2658 606 2661 534 b 2760 457 2697 461 2728 459 b 2763 497 2761 470 2762 484 b 2704 501 2743 498 2724 500 b 2696 679 2701 560 2698 620 z m 2372 453 b 2430 487 2399 453 2417 469 b 2454 578 2446 512 2454 541 b 2385 679 2454 629 2436 679 b 2297 568 2342 679 2301 641 l 2297 557 b 2372 453 2297 500 2321 453 z m 1671 679 l 1630 677 b 1639 463 1633 606 1636 534 b 1735 457 1671 461 1703 459 b 1738 497 1736 470 1737 484 b 1679 501 1718 498 1699 500 b 1671 679 1676 560 1673 620 z m 1196 453 b 1253 487 1222 453 1241 469 b 1278 578 1270 512 1278 541 b 1208 679 1278 629 1259 679 b 1120 568 1166 679 1124 641 l 1120 557 b 1196 453 1120 500 1145 453 z m 1561 679 b 1504 674 1542 678 1523 676 b 1478 465 1496 605 1487 535 b 1519 460 1492 464 1505 462 b 1527 525 1522 482 1524 503 l 1556 528 b 1574 458 1562 504 1569 481 b 1614 468 1588 461 1601 464 b 1561 679 1596 538 1578 608 z m 2881 681 b 2824 604 2862 655 2843 630 b 2796 677 2815 628 2805 653 b 2758 663 2783 672 2770 668 b 2798 555 2771 627 2784 591 b 2796 459 2797 523 2796 491 b 2839 458 2811 459 2825 459 b 2841 558 2840 492 2840 524 b 2914 657 2865 591 2890 624 z m 1261 887 b 1220 887 1248 887 1234 887 l 1223 730 b 1263 730 1236 730 1250 730 b 1261 887 1263 783 1262 835 z m 2590 893 b 2551 858 2590 869 2571 863 l 2548 908 b 2564 909 2553 908 2559 909 b 2590 893 2580 909 2590 908 z m 2447 860 b 2428 792 2447 831 2440 808 b 2406 776 2420 780 2412 776 b 2371 839 2380 776 2371 804 l 2371 848 b 2418 920 2374 908 2403 920 b 2447 860 2442 920 2447 885 z m 1743 860 b 1724 792 1743 831 1736 808 b 1701 776 1715 780 1707 776 b 1667 839 1676 776 1667 804 l 1667 848 b 1714 920 1670 908 1699 920 b 1743 860 1738 920 1743 885 z m 1260 946 l 1219 946 l 1219 904 l 1260 905 z m 2118 947 b 1985 942 2073 945 2029 944 b 1986 902 1985 928 1986 915 b 2031 903 2001 902 2016 903 b 2035 736 2032 848 2034 792 b 2079 737 2050 736 2064 737 b 2076 905 2078 793 2077 849 b 2119 907 2090 906 2105 907 b 2118 947 2119 920 2118 934 z m 1036 947 b 903 942 991 945 947 944 b 904 902 903 928 904 915 b 949 903 920 902 935 903 b 953 736 951 848 952 792 b 998 737 968 736 983 737 b 994 905 996 793 995 849 b 1038 907 1009 906 1023 907 b 1036 947 1037 920 1037 934 z m 2631 894 b 2563 949 2631 934 2602 949 b 2506 946 2544 949 2524 947 b 2515 729 2509 874 2512 801 b 2556 730 2529 729 2543 730 b 2554 781 2556 747 2555 764 b 2574 771 2560 778 2567 774 b 2630 758 2602 761 2628 759 l 2635 798 b 2591 808 2633 798 2608 801 b 2569 822 2585 811 2577 816 b 2631 894 2599 830 2631 852 z m 1964 953 l 1922 953 l 1924 810 l 1842 908 l 1803 908 l 1804 727 l 1845 727 l 1844 843 l 1925 744 b 1927 742 1926 743 1926 742 b 1929 743 1927 742 1928 743 l 1966 743 z m 1348 769 b 1310 790 1334 769 1311 789 l 1281 761 b 1348 729 1287 755 1321 729 l 1349 729 b 1400 780 1375 730 1400 752 b 1390 813 1400 793 1396 804 b 1350 861 1380 831 1364 847 b 1339 887 1342 870 1339 879 b 1361 916 1339 905 1351 916 b 1377 896 1370 916 1376 900 l 1417 907 b 1359 956 1411 927 1392 956 l 1358 956 b 1296 889 1319 955 1296 923 b 1317 835 1296 871 1302 852 b 1353 793 1331 819 1346 805 b 1358 780 1357 787 1358 784 l 1358 779 b 1348 769 1358 774 1353 769 z m 2406 735 b 2463 769 2432 735 2451 751 b 2488 860 2480 794 2488 823 b 2418 961 2488 911 2470 961 b 2330 850 2376 961 2334 923 l 2330 839 b 2406 735 2330 782 2355 735 z m 1702 735 b 1759 769 1728 735 1747 751 b 1783 860 1775 794 1783 823 b 1714 961 1783 911 1765 961 b 1626 850 1672 961 1630 923 l 1626 839 b 1702 735 1626 782 1651 735 z m 2300 965 b 2234 963 2278 964 2256 963 b 2201 962 2223 963 2212 962 b 2204 738 2202 887 2203 813 l 2245 738 b 2244 834 2245 771 2244 802 b 2312 835 2267 834 2290 835 l 2312 876 b 2243 874 2289 875 2266 875 l 2242 923 b 2301 924 2262 923 2282 924 b 2300 965 2301 938 2300 951 z m 1596 965 b 1530 963 1574 964 1552 963 b 1497 962 1519 963 1508 962 b 1500 738 1497 887 1499 813 l 1541 738 b 1539 834 1541 771 1540 802 b 1608 835 1562 834 1585 835 l 1607 876 b 1539 874 1585 875 1562 875 l 1538 923 b 1597 924 1558 923 1577 924 b 1596 965 1596 938 1596 951 z m 1062 966 b 1055 742 1060 892 1057 817 b 1096 741 1069 742 1083 742 b 1099 822 1097 768 1098 795 l 1155 824 b 1153 750 1154 799 1154 774 b 1194 748 1167 749 1180 749 b 1201 965 1196 821 1198 893 b 1160 966 1187 966 1173 966 b 1157 862 1159 932 1157 897 l 1100 861 b 1103 965 1101 896 1102 931 b 1062 966 1089 966 1076 966 z "},"-":{"ha":364,"x_min":0,"x_max":0,"o":"m 264 282 b 49 277 227 282 94 281 b 48 221 21 274 27 228 b 285 218 85 211 223 217 b 328 262 306 219 339 227 b 264 282 322 279 295 283 z "},".":{"ha":3471,"x_min":0,"x_max":0,"o":"m 2758 -72 b 2737 -92 2746 -72 2737 -81 b 2758 -113 2737 -104 2746 -113 b 2778 -92 2769 -113 2778 -104 b 2758 -72 2778 -81 2769 -72 z m 2540 41 b 2499 41 2527 41 2513 41 l 2502 -116 b 2543 -116 2515 -116 2529 -116 b 2540 41 2542 -63 2541 -11 z m 1070 41 b 1029 41 1056 41 1043 41 l 1031 -116 b 1072 -116 1045 -116 1058 -116 b 1070 41 1071 -63 1071 -11 z m 654 41 b 613 41 640 41 626 41 l 615 -116 b 656 -116 628 -116 642 -116 b 654 41 655 -63 654 -11 z m 439 41 b 399 41 426 41 412 41 l 401 -116 b 442 -116 414 -116 428 -116 b 439 41 441 -63 440 -11 z m 1698 45 b 1657 9 1698 21 1678 14 l 1654 62 b 1671 62 1659 62 1665 62 l 1671 62 b 1698 45 1687 62 1698 62 z m 3070 14 b 3051 -54 3070 -15 3063 -38 b 3029 -70 3043 -66 3035 -70 b 2995 -7 3003 -70 2995 -42 l 2995 2 b 3041 74 2998 62 3027 74 b 3070 14 3065 74 3070 39 z m 2678 14 b 2659 -54 2678 -15 2671 -38 b 2637 -70 2651 -66 2643 -70 b 2602 -7 2611 -70 2602 -42 l 2602 2 b 2649 74 2605 62 2634 74 b 2678 14 2673 74 2678 39 z m 2381 77 b 2439 0 2419 77 2439 57 b 2388 -68 2439 -46 2419 -61 l 2378 77 z m 2539 100 l 2498 100 l 2498 58 l 2539 59 z m 1069 100 l 1028 100 l 1028 58 l 1069 59 z m 652 100 l 612 100 l 612 58 l 653 59 z m 438 100 l 397 100 l 397 58 l 439 59 z m 3131 101 l 3131 -96 l 3172 -96 l 3172 12 b 3198 -37 3181 -4 3190 -21 b 3236 -37 3211 -37 3223 -37 b 3266 15 3246 -19 3256 -2 b 3266 -115 3266 -28 3266 -72 l 3307 -115 l 3307 101 l 3266 101 l 3266 99 l 3218 14 l 3172 99 l 3172 101 z m 1092 101 l 1092 -96 l 1133 -96 l 1133 12 b 1160 -37 1142 -4 1151 -21 b 1197 -37 1172 -37 1184 -37 b 1227 15 1207 -19 1217 -2 b 1227 -115 1227 -28 1227 -72 l 1268 -115 l 1268 101 l 1227 101 l 1227 99 l 1179 14 l 1133 99 l 1133 101 z m 2224 -6 l 2224 8 b 2228 90 2224 48 2228 88 b 2189 95 2215 91 2202 93 b 2183 8 2186 95 2183 48 l 2183 -8 b 2244 -105 2184 -53 2191 -105 l 2245 -105 b 2297 -70 2272 -105 2288 -88 b 2317 98 2317 -30 2317 40 l 2317 101 l 2276 101 l 2276 98 b 2270 -19 2276 76 2274 -3 b 2245 -64 2267 -31 2261 -64 b 2224 -6 2221 -64 2224 -29 z m 2163 101 b 2030 96 2118 99 2074 98 b 2031 56 2030 82 2031 69 b 2076 57 2047 56 2061 57 b 2080 -110 2077 2 2079 -54 b 2124 -109 2095 -110 2110 -109 l 2121 59 b 2165 61 2136 60 2150 61 b 2163 101 2164 74 2163 88 z m 1421 101 b 1287 96 1376 99 1332 98 b 1289 56 1288 82 1289 69 b 1334 57 1304 56 1319 57 b 1338 -110 1335 2 1337 -54 b 1382 -109 1352 -110 1367 -109 b 1379 59 1381 -53 1380 3 b 1422 61 1393 60 1408 61 b 1421 101 1422 74 1421 88 z m 807 101 b 674 96 763 99 718 98 b 676 56 675 82 675 69 b 721 57 691 56 706 57 b 725 -110 722 2 723 -54 b 769 -109 739 -110 754 -109 b 765 59 768 -53 767 3 b 809 61 780 60 794 61 b 807 101 809 74 808 88 z m 1739 47 b 1675 103 1739 84 1710 103 b 1611 101 1652 103 1632 101 b 1623 -114 1615 29 1619 -43 b 1665 -112 1637 -113 1651 -113 b 1660 -30 1663 -85 1661 -57 b 1739 47 1698 -23 1739 -3 z m 931 -55 b 936 -24 931 -39 935 -26 b 897 -11 923 -20 910 -15 b 890 -55 896 -13 890 -32 b 944 -117 890 -89 908 -117 b 988 -97 963 -117 979 -108 b 1008 -7 1010 -71 1008 -50 b 1006 107 1008 18 1006 103 l 965 105 b 967 3 965 105 967 28 b 965 -49 967 -21 966 -42 b 948 -76 964 -58 958 -76 b 931 -55 934 -76 931 -70 z m 296 -37 b 269 91 288 -6 269 62 l 228 90 b 237 27 228 88 228 60 b 273 -103 247 -10 255 -66 b 319 -99 288 -101 303 -100 b 324 -88 320 -96 322 -92 b 380 93 345 -41 364 51 l 342 107 b 296 -37 324 72 311 8 z m 1861 109 b 1790 107 1837 109 1814 108 b 1757 107 1779 107 1768 107 b 1760 -117 1757 32 1759 -42 b 1862 -115 1794 -117 1828 -116 b 1861 -75 1861 -101 1861 -88 b 1800 -76 1840 -75 1820 -75 l 1799 -21 b 1847 -20 1815 -21 1831 -20 b 1846 21 1846 -6 1846 7 b 1799 19 1830 20 1814 20 l 1798 67 b 1862 69 1819 68 1840 69 b 1861 109 1861 83 1861 96 z m 1945 -77 b 1907 -56 1931 -77 1909 -57 l 1879 -85 b 1945 -117 1884 -91 1918 -117 l 1946 -117 b 1997 -66 1972 -116 1997 -94 b 1987 -33 1997 -53 1993 -42 b 1947 15 1977 -15 1961 1 b 1936 41 1939 24 1936 33 b 1958 70 1936 59 1949 70 b 1974 50 1967 70 1973 54 l 2014 61 b 1956 110 2008 81 1989 110 l 1955 110 b 1894 43 1916 109 1894 77 b 1914 -11 1894 25 1900 6 b 1950 -53 1928 -27 1943 -41 b 1955 -66 1954 -59 1955 -62 l 1955 -67 b 1945 -77 1955 -72 1950 -77 z m 526 -77 b 488 -56 512 -77 490 -57 l 460 -85 b 526 -117 465 -91 499 -117 l 527 -117 b 578 -66 553 -116 578 -94 b 569 -33 578 -53 574 -42 b 528 15 558 -15 542 1 b 517 41 520 24 517 33 b 539 70 517 59 530 70 b 556 50 548 70 554 54 l 595 61 b 537 110 589 81 570 110 l 536 110 b 475 43 497 109 475 77 b 495 -11 475 25 481 6 b 531 -53 509 -27 524 -41 b 536 -66 535 -59 536 -62 l 536 -67 b 526 -77 536 -72 531 -77 z m 3029 -111 b 3087 -77 3056 -111 3074 -95 b 3111 14 3103 -52 3111 -23 b 3042 115 3111 65 3093 115 b 2954 4 2999 115 2957 77 l 2954 -7 b 3029 -111 2954 -64 2978 -111 z m 2796 -7 b 2856 -110 2796 -55 2807 -110 b 2915 -74 2884 -110 2905 -86 b 2881 -50 2904 -66 2892 -58 b 2868 -62 2879 -52 2877 -56 b 2855 -70 2863 -67 2857 -69 b 2837 -7 2841 -67 2837 -29 b 2852 59 2837 24 2844 47 b 2872 74 2860 70 2867 74 b 2889 63 2875 74 2883 70 b 2902 47 2898 54 2900 49 l 2937 67 b 2873 115 2928 83 2906 115 b 2796 -7 2817 115 2796 55 z m 2637 -111 b 2694 -77 2663 -111 2682 -95 b 2719 14 2711 -52 2719 -23 b 2649 115 2719 65 2700 115 b 2561 4 2607 115 2565 77 l 2561 -7 b 2637 -111 2561 -64 2586 -111 z m 1562 117 b 1505 40 1543 91 1524 66 b 1477 113 1496 64 1487 89 b 1439 99 1465 108 1452 104 b 1479 -9 1452 63 1466 27 b 1477 -105 1479 -41 1478 -73 b 1521 -106 1492 -105 1506 -105 b 1522 -6 1521 -72 1522 -40 b 1595 93 1547 27 1571 60 z m 2383 117 l 2382 117 b 2334 115 2366 117 2350 116 b 2349 -109 2339 41 2344 -34 b 2480 4 2428 -106 2480 -81 b 2383 117 2480 79 2442 117 z m 3321 213 b 3300 192 3309 213 3300 204 b 3321 172 3300 181 3309 172 b 3341 192 3332 172 3341 181 b 3321 213 3341 204 3332 213 z m 2522 323 b 2481 323 2509 323 2495 323 l 2483 166 b 2524 166 2497 166 2511 166 b 2522 323 2523 219 2523 271 z m 1995 323 b 1954 323 1981 323 1967 323 l 1956 166 b 1997 166 1969 166 1983 166 b 1995 323 1996 219 1995 271 z m 2072 326 l 2086 283 l 2063 282 z m 1733 329 b 1694 294 1733 305 1714 299 l 1691 344 b 1707 345 1695 344 1702 345 b 1733 329 1722 345 1733 344 z m 1071 296 b 1052 228 1071 267 1064 244 b 1030 212 1044 216 1036 212 b 996 275 1004 212 996 240 l 996 284 b 1042 356 999 344 1028 356 b 1071 296 1066 356 1071 321 z m 617 359 b 675 282 655 359 675 339 b 624 214 675 236 655 221 l 614 359 z m 2521 382 l 2480 382 l 2480 340 l 2521 341 z m 1993 382 l 1953 382 l 1953 340 l 1994 341 z m 1132 383 l 1132 186 l 1173 186 l 1173 294 b 1200 245 1182 278 1191 261 b 1237 245 1212 245 1224 245 b 1267 297 1247 263 1257 280 b 1267 167 1267 254 1267 210 l 1308 167 l 1308 383 l 1267 383 l 1267 381 l 1219 296 l 1173 381 l 1173 383 z m 1774 330 b 1706 385 1774 370 1745 385 b 1649 382 1687 385 1667 383 b 1658 165 1652 310 1655 237 b 1699 166 1672 165 1686 166 b 1697 217 1699 183 1698 200 b 1716 207 1703 214 1710 210 b 1773 194 1744 197 1770 195 l 1778 234 b 1734 244 1776 234 1751 237 b 1712 258 1728 247 1720 252 b 1774 330 1742 266 1774 288 z m 2985 389 l 2944 389 l 2945 246 l 2864 344 l 2824 344 l 2825 163 l 2867 163 l 2866 279 l 2946 180 b 2948 178 2947 179 2948 178 b 2950 179 2949 178 2950 179 l 2987 179 z m 305 389 l 263 389 l 265 246 l 183 344 l 143 344 l 145 163 l 186 163 l 185 279 l 266 180 b 268 178 266 179 267 178 b 269 179 268 178 269 179 l 306 179 z m 3261 391 b 3191 390 3238 391 3214 390 b 3157 389 3179 390 3168 390 b 3161 165 3158 314 3160 240 b 3262 167 3195 165 3229 166 b 3261 207 3262 181 3262 194 b 3201 206 3241 207 3221 207 l 3200 261 b 3247 262 3216 261 3232 262 b 3246 303 3247 276 3247 289 b 3199 301 3231 302 3215 302 l 3199 349 b 3262 351 3220 350 3241 351 b 3261 391 3262 365 3262 378 z m 2805 391 b 2734 390 2781 391 2758 390 b 2701 389 2723 390 2712 390 b 2704 165 2702 314 2703 240 b 2806 167 2738 165 2772 166 b 2805 207 2805 181 2805 194 b 2744 206 2784 207 2765 207 l 2744 261 b 2791 262 2759 261 2775 262 b 2790 303 2791 276 2790 289 b 2743 301 2774 302 2758 302 l 2742 349 b 2806 351 2763 350 2784 351 b 2805 391 2805 365 2805 378 z m 1630 391 b 1560 390 1607 391 1583 390 b 1527 389 1549 390 1538 390 b 1530 165 1527 314 1529 240 b 1632 167 1564 165 1598 166 b 1630 207 1631 181 1631 194 b 1570 206 1610 207 1590 207 l 1569 261 b 1617 262 1585 261 1601 262 b 1616 303 1616 276 1616 289 b 1569 301 1600 302 1584 302 l 1568 349 b 1632 351 1589 350 1610 351 b 1630 391 1631 365 1631 378 z m 1331 391 l 1331 195 l 1372 195 l 1372 303 b 1399 254 1381 287 1390 270 b 1436 255 1411 254 1423 254 b 1466 306 1446 272 1456 289 b 1466 176 1466 263 1466 220 l 1507 176 l 1507 391 l 1466 391 l 1466 390 l 1418 305 l 1372 390 l 1372 391 z m 430 391 b 359 390 406 391 383 390 b 326 389 348 390 337 390 b 330 165 327 314 328 240 b 431 167 364 165 398 166 b 430 207 431 181 430 194 b 370 206 410 207 390 207 l 369 261 b 416 262 385 261 401 262 b 415 303 416 276 416 289 b 368 301 399 302 384 302 l 367 349 b 431 351 389 350 410 351 b 430 391 431 365 430 378 z m 3072 205 b 3034 226 3058 205 3035 225 l 3005 197 b 3072 165 3011 191 3045 165 l 3073 165 b 3124 216 3099 166 3124 188 b 3114 249 3124 229 3120 240 b 3074 297 3104 267 3088 283 b 3063 323 3066 306 3063 315 b 3085 352 3063 341 3075 352 b 3101 332 3094 352 3100 336 l 3141 343 b 3083 392 3135 363 3116 392 l 3082 392 b 3020 325 3043 391 3020 359 b 3041 271 3020 307 3027 288 b 3077 229 3055 255 3070 241 b 3082 216 3081 223 3082 220 l 3082 215 b 3072 205 3082 210 3077 205 z m 2543 275 b 2603 172 2543 227 2554 172 b 2661 208 2630 172 2652 196 b 2628 232 2650 216 2639 224 b 2615 220 2626 230 2624 226 b 2601 212 2609 215 2603 213 b 2584 275 2588 215 2584 253 b 2599 341 2584 306 2591 329 b 2619 356 2606 352 2614 356 b 2636 345 2621 356 2629 352 b 2648 329 2645 336 2647 331 l 2684 349 b 2619 397 2675 365 2652 397 b 2543 275 2564 397 2543 337 z m 2395 397 l 2355 395 b 2364 181 2358 324 2361 252 b 2460 175 2396 179 2428 177 b 2462 215 2460 188 2462 202 b 2403 219 2442 216 2423 218 b 2395 397 2400 278 2398 338 z m 2207 397 l 2167 395 b 2176 181 2170 324 2173 252 b 2272 175 2208 179 2240 177 b 2274 215 2272 188 2274 202 b 2215 219 2254 216 2235 218 b 2207 397 2212 278 2210 338 z m 1795 275 b 1854 172 1795 227 1806 172 b 1913 208 1882 172 1904 196 b 1880 232 1902 216 1891 224 b 1867 220 1878 230 1875 226 b 1853 212 1861 215 1855 213 b 1836 275 1840 215 1836 253 b 1850 341 1836 306 1842 329 b 1870 356 1858 352 1866 356 b 1888 345 1873 356 1881 352 b 1900 329 1896 336 1899 331 l 1936 349 b 1871 397 1926 365 1904 397 b 1795 275 1815 397 1795 337 z m 1030 171 b 1088 205 1057 171 1075 187 b 1112 296 1104 230 1112 259 b 1043 397 1112 347 1094 397 b 955 286 1000 397 959 359 l 955 275 b 1030 171 955 218 979 171 z m 797 275 b 857 172 797 227 808 172 b 916 208 885 172 907 196 b 882 232 905 216 893 224 b 869 220 880 230 878 226 b 856 212 864 215 858 213 b 838 275 842 215 838 253 b 853 341 838 306 845 329 b 873 356 861 352 868 356 b 890 345 876 356 884 352 b 903 329 899 336 901 331 l 938 349 b 874 397 929 365 907 397 b 797 275 818 397 797 337 z m 2097 397 b 2041 392 2078 396 2059 394 b 2015 183 2032 323 2023 253 b 2055 178 2028 182 2042 180 b 2063 243 2058 200 2061 221 l 2093 245 b 2111 176 2099 222 2105 199 b 2151 186 2124 179 2137 182 b 2097 397 2133 256 2115 326 z m 552 399 b 482 397 529 399 505 398 b 448 397 471 397 459 397 b 452 173 449 322 451 247 b 553 175 486 173 520 174 b 552 215 553 188 553 202 b 492 213 532 215 512 214 l 491 268 b 539 270 507 269 523 270 b 537 310 538 283 538 297 b 490 309 522 310 506 309 l 490 357 b 553 359 511 358 532 358 b 552 399 553 372 553 386 z m 619 399 l 618 399 b 570 397 602 399 586 398 b 585 173 575 323 580 248 b 716 286 664 176 716 201 b 619 399 716 361 678 399 z m 3342 359 b 3355 344 3351 359 3355 354 b 3336 312 3355 336 3350 324 b 3298 236 3310 290 3298 268 b 3298 231 3298 233 3298 233 l 3338 235 l 3338 238 b 3363 281 3338 254 3346 266 b 3396 344 3384 299 3396 323 b 3342 400 3396 375 3374 400 b 3294 376 3320 400 3304 387 b 3278 350 3283 364 3278 351 l 3278 349 l 3315 333 b 3342 359 3317 339 3330 359 z m 2950 492 b 2930 472 2939 492 2930 483 b 2950 451 2930 460 2939 451 b 2971 472 2962 451 2971 460 b 2950 492 2971 483 2962 492 z m 1535 608 l 1549 565 l 1526 564 z m 652 609 b 611 573 652 585 632 578 l 608 626 b 625 626 614 626 619 626 l 626 626 b 652 609 641 626 652 626 z m 917 611 b 878 576 917 587 898 581 l 876 626 b 892 627 880 626 886 627 b 917 611 907 627 917 626 z m 2413 578 b 2395 510 2413 549 2406 526 b 2372 494 2386 498 2378 494 b 2338 557 2346 494 2338 522 l 2338 566 b 2384 638 2341 626 2370 638 b 2413 578 2409 638 2413 603 z m 1237 578 b 1218 510 1237 549 1230 526 b 1196 494 1210 498 1202 494 b 1161 557 1170 494 1161 522 l 1161 566 b 1208 638 1164 626 1193 638 b 1237 578 1232 638 1237 603 z m 1860 558 l 1860 572 b 1864 654 1860 612 1864 652 l 1825 659 b 1819 572 1822 659 1819 612 l 1819 556 b 1880 459 1820 511 1827 459 l 1881 459 b 1934 494 1908 459 1925 476 b 1953 662 1953 534 1953 604 l 1953 665 l 1913 665 l 1913 662 b 1906 545 1913 640 1910 561 b 1881 500 1904 533 1897 500 b 1860 558 1857 500 1861 535 z m 958 612 b 890 667 958 652 930 667 b 833 664 871 667 851 665 b 843 447 836 592 840 519 b 884 448 856 447 870 448 b 882 499 883 465 882 482 b 901 489 887 496 894 492 b 958 476 929 479 955 477 l 963 516 b 919 526 960 516 935 519 b 896 540 913 529 904 534 b 958 612 927 548 958 570 z m 693 611 b 629 667 693 648 665 667 b 566 665 606 667 586 665 b 577 450 569 593 573 521 b 619 452 591 451 605 451 b 614 534 617 479 616 507 b 693 611 652 541 693 561 z m 2634 671 l 2593 671 l 2595 528 l 2513 626 l 2473 626 l 2475 445 l 2516 445 l 2515 561 l 2596 462 b 2597 460 2596 461 2597 460 b 2599 461 2598 460 2599 461 l 2636 461 z m 1458 671 l 1417 671 l 1418 528 l 1336 626 l 1297 626 l 1298 445 l 1340 445 l 1338 561 l 1419 462 b 1421 460 1420 461 1421 460 b 1423 461 1422 460 1422 461 l 1460 461 z m 2215 673 b 2144 672 2191 673 2168 672 b 2111 671 2133 672 2122 672 b 2114 447 2111 596 2113 522 b 2216 449 2148 447 2182 448 b 2215 489 2215 463 2215 476 b 2154 488 2194 489 2174 489 l 2153 543 b 2201 544 2169 543 2185 544 b 2200 585 2200 558 2200 571 b 2153 583 2184 584 2168 584 l 2152 631 b 2216 633 2173 632 2194 633 z m 815 673 b 744 672 791 673 768 672 b 711 671 733 672 722 672 b 715 447 712 596 713 522 b 816 449 749 447 783 448 b 815 489 816 463 815 476 b 755 488 795 489 775 489 l 754 543 b 801 544 770 543 786 544 b 800 585 801 558 800 571 b 753 583 784 584 769 584 l 752 631 b 816 633 774 632 795 633 b 815 673 816 647 815 660 z m 2025 487 b 1987 508 2011 487 1989 507 l 1959 479 b 2025 447 1964 473 1999 447 l 2026 447 b 2078 498 2053 448 2078 470 b 2068 531 2078 511 2073 522 b 2028 579 2057 549 2041 565 b 2016 605 2019 588 2016 597 b 2038 634 2016 623 2029 634 b 2055 614 2047 634 2053 618 l 2094 625 b 2036 674 2088 645 2069 674 l 2035 674 b 1974 607 1997 673 1974 641 b 1994 553 1974 589 1980 570 b 2031 511 2008 537 2023 523 b 2036 498 2034 505 2036 502 l 2036 497 b 2025 487 2036 492 2031 487 z m 1045 487 b 1007 508 1031 487 1008 507 l 979 479 b 1045 447 984 473 1018 447 l 1046 447 b 1097 498 1072 448 1097 470 b 1087 531 1097 511 1093 522 b 1047 579 1077 549 1061 565 b 1036 605 1039 588 1036 597 b 1058 634 1036 623 1048 634 b 1074 614 1067 634 1073 618 l 1114 625 b 1056 674 1108 645 1089 674 l 1055 674 b 993 607 1016 673 993 641 b 1014 553 993 589 1000 570 b 1050 511 1028 537 1043 523 b 1055 498 1054 505 1055 502 l 1055 497 b 1045 487 1055 492 1050 487 z m 2696 679 l 2655 677 b 2664 463 2658 606 2661 534 b 2760 457 2697 461 2728 459 b 2763 497 2761 470 2762 484 b 2704 501 2743 498 2724 500 b 2696 679 2701 560 2698 620 z m 2372 453 b 2430 487 2399 453 2417 469 b 2454 578 2446 512 2454 541 b 2385 679 2454 629 2436 679 b 2297 568 2342 679 2301 641 l 2297 557 b 2372 453 2297 500 2321 453 z m 1671 679 l 1630 677 b 1639 463 1633 606 1636 534 b 1735 457 1671 461 1703 459 b 1738 497 1736 470 1737 484 b 1679 501 1718 498 1699 500 b 1671 679 1676 560 1673 620 z m 1196 453 b 1253 487 1222 453 1241 469 b 1278 578 1270 512 1278 541 b 1208 679 1278 629 1259 679 b 1120 568 1166 679 1124 641 l 1120 557 b 1196 453 1120 500 1145 453 z m 1561 679 b 1504 674 1542 678 1523 676 b 1478 465 1496 605 1487 535 b 1519 460 1492 464 1505 462 b 1527 525 1522 482 1524 503 l 1556 528 b 1574 458 1562 504 1569 481 b 1614 468 1588 461 1601 464 b 1561 679 1596 538 1578 608 z m 2881 681 b 2824 604 2862 655 2843 630 b 2796 677 2815 628 2805 653 b 2758 663 2783 672 2770 668 b 2798 555 2771 627 2784 591 b 2796 459 2797 523 2796 491 b 2839 458 2811 459 2825 459 b 2841 558 2840 492 2840 524 b 2914 657 2865 591 2890 624 z m 1261 887 b 1220 887 1248 887 1234 887 l 1223 730 b 1263 730 1236 730 1250 730 b 1261 887 1263 783 1262 835 z m 2590 893 b 2551 858 2590 869 2571 863 l 2548 908 b 2564 909 2553 908 2559 909 b 2590 893 2580 909 2590 908 z m 2447 860 b 2428 792 2447 831 2440 808 b 2406 776 2420 780 2412 776 b 2371 839 2380 776 2371 804 l 2371 848 b 2418 920 2374 908 2403 920 b 2447 860 2442 920 2447 885 z m 1743 860 b 1724 792 1743 831 1736 808 b 1701 776 1715 780 1707 776 b 1667 839 1676 776 1667 804 l 1667 848 b 1714 920 1670 908 1699 920 b 1743 860 1738 920 1743 885 z m 1260 946 l 1219 946 l 1219 904 l 1260 905 z m 2118 947 b 1985 942 2073 945 2029 944 b 1986 902 1985 928 1986 915 b 2031 903 2001 902 2016 903 b 2035 736 2032 848 2034 792 b 2079 737 2050 736 2064 737 b 2076 905 2078 793 2077 849 b 2119 907 2090 906 2105 907 b 2118 947 2119 920 2118 934 z m 1036 947 b 903 942 991 945 947 944 b 904 902 903 928 904 915 b 949 903 920 902 935 903 b 953 736 951 848 952 792 b 998 737 968 736 983 737 b 994 905 996 793 995 849 b 1038 907 1009 906 1023 907 b 1036 947 1037 920 1037 934 z m 2631 894 b 2563 949 2631 934 2602 949 b 2506 946 2544 949 2524 947 b 2515 729 2509 874 2512 801 b 2556 730 2529 729 2543 730 b 2554 781 2556 747 2555 764 b 2574 771 2560 778 2567 774 b 2630 758 2602 761 2628 759 l 2635 798 b 2591 808 2633 798 2608 801 b 2569 822 2585 811 2577 816 b 2631 894 2599 830 2631 852 z m 1964 953 l 1922 953 l 1924 810 l 1842 908 l 1803 908 l 1804 727 l 1845 727 l 1844 843 l 1925 744 b 1927 742 1926 743 1926 742 b 1929 743 1927 742 1928 743 l 1966 743 z m 1348 769 b 1310 790 1334 769 1311 789 l 1281 761 b 1348 729 1287 755 1321 729 l 1349 729 b 1400 780 1375 730 1400 752 b 1390 813 1400 793 1396 804 b 1350 861 1380 831 1364 847 b 1339 887 1342 870 1339 879 b 1361 916 1339 905 1351 916 b 1377 896 1370 916 1376 900 l 1417 907 b 1359 956 1411 927 1392 956 l 1358 956 b 1296 889 1319 955 1296 923 b 1317 835 1296 871 1302 852 b 1353 793 1331 819 1346 805 b 1358 780 1357 787 1358 784 l 1358 779 b 1348 769 1358 774 1353 769 z m 2406 735 b 2463 769 2432 735 2451 751 b 2488 860 2480 794 2488 823 b 2418 961 2488 911 2470 961 b 2330 850 2376 961 2334 923 l 2330 839 b 2406 735 2330 782 2355 735 z m 1702 735 b 1759 769 1728 735 1747 751 b 1783 860 1775 794 1783 823 b 1714 961 1783 911 1765 961 b 1626 850 1672 961 1630 923 l 1626 839 b 1702 735 1626 782 1651 735 z m 2300 965 b 2234 963 2278 964 2256 963 b 2201 962 2223 963 2212 962 b 2204 738 2202 887 2203 813 l 2245 738 b 2244 834 2245 771 2244 802 b 2312 835 2267 834 2290 835 l 2312 876 b 2243 874 2289 875 2266 875 l 2242 923 b 2301 924 2262 923 2282 924 b 2300 965 2301 938 2300 951 z m 1596 965 b 1530 963 1574 964 1552 963 b 1497 962 1519 963 1508 962 b 1500 738 1497 887 1499 813 l 1541 738 b 1539 834 1541 771 1540 802 b 1608 835 1562 834 1585 835 l 1607 876 b 1539 874 1585 875 1562 875 l 1538 923 b 1597 924 1558 923 1577 924 b 1596 965 1596 938 1596 951 z m 1062 966 b 1055 742 1060 892 1057 817 b 1096 741 1069 742 1083 742 b 1099 822 1097 768 1098 795 l 1155 824 b 1153 750 1154 799 1154 774 b 1194 748 1167 749 1180 749 b 1201 965 1196 821 1198 893 b 1160 966 1187 966 1173 966 b 1157 862 1159 932 1157 897 l 1100 861 b 1103 965 1101 896 1102 931 b 1062 966 1089 966 1076 966 z "},"/":{"ha":328,"x_min":0,"x_max":0,"o":"m 257 696 b 167 534 219 696 204 663 b 35 90 123 384 84 262 b 36 -6 18 30 17 6 b 143 146 81 -35 126 100 b 262 484 190 273 254 460 b 301 643 280 538 301 617 b 257 696 301 675 286 696 z "},":":{"ha":157,"x_min":0,"x_max":0,"o":"m 52 290 b 123 339 86 266 123 304 b 80 378 123 360 103 378 b 52 290 25 378 14 317 z m 52 124 b 123 172 86 99 123 137 b 80 211 123 193 103 211 b 52 124 25 211 14 151 z "},";":{"ha":161,"x_min":0,"x_max":0,"o":"m 59 290 b 130 339 93 266 130 304 b 87 378 130 360 110 378 b 59 290 32 378 21 317 z m 30 74 b 47 44 26 59 34 47 b 87 58 59 40 75 44 b 127 161 102 75 124 137 b 116 196 129 177 127 186 b 60 198 100 212 75 214 b 30 74 38 175 37 95 z "},"<":{"ha":324,"x_min":0,"x_max":0,"o":"m 236 105 b 296 125 260 99 289 105 b 215 211 304 152 273 178 b 139 257 183 229 163 241 l 197 314 b 265 392 240 357 261 381 b 230 438 273 414 261 444 b 154 380 214 435 187 412 b 24 248 107 335 26 273 b 114 160 21 208 77 184 b 236 105 149 136 225 108 z "},"=":{"ha":364,"x_min":0,"x_max":0,"o":"m 264 342 b 49 336 227 342 94 340 b 48 281 21 334 27 288 b 285 278 85 271 223 276 b 328 322 306 278 339 287 b 264 342 322 339 295 342 z m 264 231 b 49 225 227 231 94 229 b 48 170 21 223 27 175 b 285 167 85 160 224 165 b 328 210 306 167 339 176 b 264 231 322 228 295 231 z "},">":{"ha":296,"x_min":0,"x_max":0,"o":"m 50 48 b 185 117 81 26 119 51 b 263 264 261 193 281 226 b 140 331 252 287 231 297 b 26 339 63 359 40 371 b 167 251 11 303 133 268 b 115 195 159 241 138 219 b 50 48 78 158 -6 87 z "},"?":{"ha":311,"x_min":0,"x_max":0,"o":"m 148 29 b 77 58 157 65 103 87 b 83 0 60 39 67 12 b 148 29 109 -22 141 3 z m 159 646 b 24 513 86 644 21 573 b 47 480 24 499 30 472 b 60 502 54 484 58 492 b 162 573 70 559 137 623 b 118 399 176 547 171 513 b 47 201 62 280 47 240 b 76 120 47 166 60 133 b 118 151 98 103 118 128 b 185 315 118 183 125 243 b 278 567 269 415 298 493 b 159 646 262 626 215 647 z "},"@":{"ha":879,"x_min":0,"x_max":0,"o":"m 220 703 b 25 155 114 591 3 368 b 156 -121 37 42 80 -50 b 435 -182 242 -201 357 -192 b 503 -159 458 -179 493 -169 b 507 -138 508 -154 513 -145 b 442 -138 496 -128 464 -134 b 251 -123 400 -146 307 -148 b 125 19 208 -104 155 -43 b 302 670 20 234 205 571 b 609 790 394 764 513 810 b 809 584 696 772 781 686 b 693 101 840 471 783 232 b 576 22 643 29 600 5 b 545 136 559 34 546 69 b 586 411 545 207 550 244 b 562 552 602 485 597 529 b 454 529 525 577 478 567 b 445 514 449 522 447 517 b 427 523 443 515 436 518 b 255 475 373 550 311 531 b 290 131 173 393 127 130 b 417 239 344 131 383 183 b 577 -36 429 109 459 -39 b 754 118 647 -34 697 10 b 845 396 797 198 823 280 b 599 845 887 623 785 811 b 220 703 440 875 304 791 z m 378 421 b 426 434 397 436 412 437 b 418 336 425 402 423 349 b 312 186 408 311 337 186 b 301 226 309 186 301 196 b 378 421 301 282 328 378 z "},"A":{"ha":401,"x_min":0,"x_max":0,"o":"m 103 595 b 31 240 69 527 43 401 b 21 -8 18 76 14 10 b 72 -4 27 -21 67 -16 b 88 162 76 5 86 133 b 213 177 94 165 142 173 l 216 123 b 275 -7 220 50 230 -7 b 329 38 298 -6 319 12 b 357 245 336 58 351 167 b 345 584 370 391 367 477 b 242 708 329 661 293 707 b 103 595 183 710 132 650 z m 223 614 b 213 229 223 553 216 273 b 116 214 189 224 141 216 l 92 212 l 92 212 b 99 284 92 218 95 251 b 163 581 112 402 132 514 b 219 651 178 612 206 643 b 223 614 221 644 223 629 z "},"B":{"ha":346,"x_min":0,"x_max":0,"o":"m 81 692 b 38 506 54 664 46 626 b 51 57 27 327 31 149 b 80 -4 59 21 64 8 b 249 91 128 -41 222 45 b 281 249 277 140 296 190 b 199 344 269 296 219 331 b 228 369 205 349 216 359 b 313 478 272 405 300 444 b 313 623 329 518 328 587 b 154 708 290 676 240 704 b 81 692 125 710 95 705 z m 190 657 b 266 559 228 656 266 607 b 171 388 265 517 222 431 b 185 622 176 430 185 575 b 190 657 185 658 188 657 z m 208 274 b 225 168 238 244 239 217 b 150 68 211 119 172 78 b 162 299 150 104 158 275 b 208 274 169 300 194 287 z "},"C":{"ha":383,"x_min":0,"x_max":0,"o":"m 308 183 b 204 47 296 148 244 17 b 186 217 195 54 188 78 b 202 566 183 385 190 521 b 248 640 217 620 234 640 b 288 587 268 640 278 622 b 324 556 292 565 308 551 b 334 619 344 562 340 595 b 304 674 329 639 318 660 b 181 698 272 704 226 717 b 39 451 99 662 59 573 b 84 76 20 334 32 171 b 206 -5 109 33 146 -5 b 293 47 245 -5 270 14 b 350 191 319 87 358 177 b 308 183 338 216 313 202 z "},"D":{"ha":344,"x_min":0,"x_max":0,"o":"m 110 692 b 35 389 59 682 43 589 b 86 9 30 272 24 39 b 269 124 128 -11 214 18 b 254 647 341 259 363 551 b 110 692 228 671 169 704 z m 180 628 b 241 489 205 603 224 575 b 233 256 249 442 245 310 b 148 72 216 178 187 115 b 154 161 149 97 151 121 b 174 445 161 245 167 379 b 179 569 176 469 179 525 z "},"E":{"ha":326,"x_min":0,"x_max":0,"o":"m 166 0 b 241 41 206 2 256 12 b 154 54 231 61 174 56 b 182 254 160 102 175 199 l 189 305 b 255 341 220 309 274 316 b 214 355 249 348 236 355 b 193 356 203 355 197 355 b 200 434 195 365 197 397 b 213 647 205 512 212 574 l 235 647 b 294 669 271 648 291 650 b 224 698 298 696 256 697 b 90 669 161 699 113 706 b 47 437 74 644 56 497 b 38 121 29 317 26 219 b 70 4 47 38 48 16 b 166 0 93 -8 140 -1 z "},"F":{"ha":299,"x_min":0,"x_max":0,"o":"m 160 92 b 173 244 165 157 167 178 l 178 295 b 231 325 203 299 235 305 b 183 347 227 342 203 342 b 197 497 183 347 194 453 b 221 647 200 557 213 629 b 272 620 235 638 255 611 b 267 679 296 634 275 666 b 146 700 246 712 198 732 b 47 512 92 667 71 599 b 45 134 26 434 25 299 b 120 -12 52 78 49 -30 b 160 92 149 -5 156 22 z "},"G":{"ha":371,"x_min":0,"x_max":0,"o":"m 291 76 b 332 239 313 118 327 171 b 306 333 337 306 335 323 b 233 323 288 341 248 335 b 236 279 218 311 208 279 b 275 280 256 279 273 282 b 261 152 279 267 272 187 b 204 50 243 88 213 50 b 171 112 182 48 170 77 b 222 619 174 260 207 580 b 243 649 230 637 240 648 b 268 616 249 649 260 646 b 292 561 275 584 276 566 b 323 602 317 554 323 578 b 212 716 322 660 283 724 b 87 619 156 710 119 681 b 32 308 56 560 37 440 b 134 3 25 158 41 46 b 291 76 183 -19 248 -3 z "},"H":{"ha":433,"x_min":0,"x_max":0,"o":"m 376 276 b 398 635 384 384 405 586 b 332 705 391 680 370 705 b 253 545 285 705 271 669 b 200 482 243 473 251 483 l 178 481 b 183 663 184 527 190 639 b 124 705 174 689 152 705 b 42 577 80 705 57 685 b 33 371 35 531 33 499 b 48 49 33 237 39 110 b 68 8 52 29 56 19 b 136 11 89 -11 118 -9 b 155 130 157 34 153 46 b 171 400 157 220 166 325 l 174 431 b 239 436 192 434 213 436 b 254 13 230 372 235 42 b 325 -1 267 -8 299 -21 b 376 276 363 28 367 149 z "},"I":{"ha":215,"x_min":0,"x_max":0,"o":"m 153 142 b 166 368 155 193 161 295 b 179 663 184 638 184 643 b 127 701 171 686 152 701 b 49 574 88 701 68 662 b 40 108 30 489 27 284 b 107 -1 46 29 56 -8 b 153 142 140 3 150 41 z "},"J":{"ha":376,"x_min":0,"x_max":0,"o":"m 105 8 b 254 56 144 -6 209 18 b 332 230 289 86 322 160 b 326 612 340 285 336 571 b 263 687 314 659 296 682 b 194 610 231 691 208 666 b 174 315 180 549 175 485 b 168 125 173 226 170 139 b 128 56 160 79 141 55 b 95 144 105 58 95 96 b 61 224 95 203 90 224 b 28 153 32 224 28 206 b 105 8 28 86 54 26 z "},"K":{"ha":401,"x_min":0,"x_max":0,"o":"m 35 148 b 111 23 39 72 61 22 b 180 150 158 25 176 68 b 191 302 182 225 188 287 b 216 289 196 301 209 297 b 238 167 228 276 234 251 b 247 76 240 126 245 86 b 302 27 253 51 279 20 b 314 71 321 32 322 50 b 308 164 310 83 308 106 b 302 268 308 214 305 252 b 224 364 292 329 244 355 b 240 388 227 368 234 379 b 382 649 298 470 381 620 b 350 679 383 664 367 679 b 240 527 326 679 305 644 b 209 473 230 508 219 489 b 210 667 212 525 220 636 b 117 708 197 705 151 721 b 64 625 91 698 76 672 b 35 148 35 507 26 355 z "},"L":{"ha":315,"x_min":0,"x_max":0,"o":"m 268 1 b 325 29 285 3 325 6 b 276 57 325 50 314 57 b 243 56 267 57 256 57 b 177 62 186 54 187 56 b 184 278 171 77 178 218 b 202 591 192 358 209 491 b 115 703 201 614 187 704 b 45 526 61 702 53 642 b 53 94 35 382 25 168 b 268 1 83 12 143 -16 z "},"M":{"ha":719,"x_min":0,"x_max":0,"o":"m 60 22 b 137 -1 69 -4 108 -17 b 177 155 167 17 168 24 b 209 434 184 283 195 340 b 276 614 220 509 246 572 b 281 507 282 592 283 575 b 278 53 274 292 272 73 b 385 32 293 4 353 0 b 414 139 403 53 408 75 b 443 310 421 225 425 208 b 517 563 467 439 485 502 b 539 602 527 583 534 595 b 542 459 542 577 545 500 b 536 62 536 386 532 105 b 631 6 540 16 585 -28 b 668 133 658 28 662 45 b 681 394 674 238 680 287 b 631 646 681 531 670 605 b 560 679 606 671 587 680 b 442 539 505 678 472 622 b 431 507 438 526 434 516 b 366 670 424 571 399 640 b 264 695 336 698 295 709 b 187 591 227 677 201 623 b 172 661 183 618 177 649 b 75 686 154 696 105 708 b 34 475 48 663 41 620 b 60 22 27 341 43 75 z "},"N":{"ha":481,"x_min":0,"x_max":0,"o":"m 421 129 b 444 448 432 224 442 363 b 314 722 448 600 425 737 b 200 498 259 714 221 583 b 138 712 215 631 210 712 b 58 608 97 712 77 682 b 40 112 23 472 30 262 b 90 0 44 57 55 7 b 169 87 145 -10 161 39 b 295 602 170 94 244 489 b 288 471 295 567 288 480 b 286 119 281 358 286 226 b 351 0 286 36 317 0 b 421 129 390 0 411 47 z "},"O":{"ha":440,"x_min":0,"x_max":0,"o":"m 286 720 b 136 677 219 744 162 704 b 37 420 90 628 53 552 b 156 15 15 243 48 68 b 253 12 185 1 225 -1 b 390 297 313 38 358 138 b 286 720 431 499 388 683 z m 345 534 b 336 305 352 484 347 361 b 246 84 318 214 277 116 b 216 73 229 67 222 68 b 199 111 211 79 204 91 b 239 608 171 210 217 542 b 276 663 253 648 263 662 b 345 534 296 663 336 604 z "},"P":{"ha":379,"x_min":0,"x_max":0,"o":"m 71 688 b 33 310 50 648 37 503 b 102 -9 29 98 31 -10 b 161 37 131 -9 154 17 b 175 246 166 56 174 195 b 270 269 201 249 239 255 b 412 544 352 304 411 411 b 330 695 413 626 384 686 b 206 621 283 702 240 669 b 127 721 202 678 191 722 b 71 688 99 720 82 708 z m 310 635 b 340 549 319 636 338 611 b 335 474 340 527 339 502 b 209 301 320 362 270 319 b 181 295 191 296 184 294 b 186 366 177 317 185 344 b 246 569 191 422 222 526 b 310 635 261 593 290 635 z "},"Q":{"ha":451,"x_min":0,"x_max":0,"o":"m 285 720 b 161 700 242 740 189 730 b 31 270 63 588 32 435 b 148 -7 29 110 85 15 b 243 -2 173 -16 219 -14 b 327 89 275 14 303 52 l 344 60 b 401 22 365 24 383 5 b 393 64 410 31 406 41 b 356 144 380 92 369 115 l 373 183 b 416 479 403 256 420 374 b 383 632 413 541 408 568 b 305 714 369 670 331 714 b 285 720 300 714 290 717 z m 269 642 b 327 636 287 671 314 655 b 365 517 338 619 358 554 b 348 260 373 461 369 356 b 328 205 345 246 335 221 b 318 223 325 209 321 216 b 268 255 303 249 290 259 b 285 166 232 249 268 195 l 299 141 b 242 68 284 115 259 80 b 200 69 228 76 211 78 b 208 471 164 133 166 322 b 269 642 220 512 240 587 z "},"R":{"ha":374,"x_min":0,"x_max":0,"o":"m 192 727 b 76 678 132 740 104 732 b 34 458 51 626 40 568 b 54 54 26 330 46 98 b 124 7 60 29 79 3 b 176 86 162 11 174 54 b 179 314 176 90 178 260 b 194 296 183 310 192 300 b 238 174 211 271 217 243 b 325 31 258 110 297 19 b 271 290 368 48 289 256 b 234 339 264 305 250 326 b 336 531 314 377 336 443 b 192 727 336 651 300 700 z m 212 639 b 244 564 233 638 245 626 b 186 396 242 473 224 443 b 212 639 187 423 207 603 z "},"S":{"ha":382,"x_min":0,"x_max":0,"o":"m 29 129 b 160 5 40 70 67 2 b 284 62 212 7 247 23 b 341 247 338 118 357 180 b 259 403 332 288 315 319 b 187 564 215 469 186 521 b 237 642 188 616 201 636 b 283 602 249 645 268 632 b 334 608 299 561 332 567 b 270 716 337 645 313 693 b 100 691 214 745 136 728 b 52 469 47 635 29 547 b 159 243 62 435 133 286 b 201 148 196 183 202 169 b 168 76 201 124 188 94 b 167 76 167 76 167 76 b 108 63 153 60 116 47 b 78 140 92 89 85 110 b 58 182 72 167 72 178 b 29 129 33 190 24 158 z "},"T":{"ha":306,"x_min":0,"x_max":0,"o":"m 136 653 b 85 272 105 566 88 421 b 129 -1 82 140 96 33 b 189 1 144 -17 170 -15 b 241 272 218 25 224 65 b 252 406 245 315 250 375 b 251 646 260 492 260 619 l 247 658 b 319 665 266 658 302 660 b 343 689 337 669 343 674 b 267 717 343 713 316 717 b 176 714 244 717 214 716 b 28 686 43 708 31 708 b 136 653 23 641 95 655 z "},"U":{"ha":489,"x_min":0,"x_max":0,"o":"m 292 46 b 352 -40 295 3 306 -43 b 416 43 390 -38 412 7 b 455 587 429 188 454 481 b 424 704 455 660 449 689 b 324 661 387 725 336 700 b 286 290 307 606 292 455 b 263 106 282 169 277 135 b 195 88 237 56 211 49 b 208 468 172 154 175 271 b 218 682 232 618 236 657 b 119 690 196 708 151 710 b 32 370 73 657 42 521 b 183 10 19 157 83 26 b 291 68 231 3 265 32 z "},"V":{"ha":394,"x_min":0,"x_max":0,"o":"m 98 115 b 220 16 114 70 156 -19 b 342 285 257 36 293 114 b 443 701 379 416 412 545 b 404 728 447 716 414 727 b 334 559 379 731 371 697 b 252 261 312 477 272 328 b 202 653 240 378 221 597 b 183 686 198 664 190 678 b 68 708 158 717 101 729 b 44 433 23 678 20 627 b 98 115 72 198 79 168 z "},"W":{"ha":663,"x_min":0,"x_max":0,"o":"m 274 138 b 307 242 286 175 297 206 b 413 52 327 142 363 74 b 568 143 473 26 533 66 b 587 199 575 160 582 178 b 622 645 618 320 639 553 b 518 694 611 707 560 715 b 474 353 477 673 483 477 b 448 100 465 234 458 118 b 416 179 439 105 424 136 b 386 444 401 267 398 417 b 339 475 379 460 357 475 b 288 409 302 475 288 441 b 236 211 288 374 245 244 b 173 67 218 149 189 87 b 196 377 172 112 190 307 b 211 656 209 507 220 626 b 155 709 204 680 180 702 b 60 631 108 722 77 697 b 34 405 46 582 39 509 b 45 126 29 302 34 174 b 157 1 59 66 90 1 b 274 138 205 1 243 44 z "},"X":{"ha":449,"x_min":0,"x_max":0,"o":"m 278 30 b 393 -11 294 -1 343 -45 b 344 328 428 14 403 101 l 316 439 l 331 465 b 388 562 340 482 366 525 b 469 734 447 660 481 719 b 450 740 465 738 456 740 b 332 579 429 740 390 678 b 294 513 316 551 303 528 b 280 551 291 521 285 536 b 141 718 241 664 200 718 b 84 688 116 718 93 707 b 107 548 75 666 82 630 b 174 297 128 477 171 315 b 40 43 167 279 56 66 b 35 0 27 26 23 12 b 86 10 49 -14 72 -6 b 201 217 101 29 175 169 b 278 30 216 176 256 71 z "},"Y":{"ha":458,"x_min":0,"x_max":0,"o":"m 192 -9 b 403 255 321 18 377 137 b 413 648 428 367 430 594 b 360 693 405 672 384 693 b 285 596 323 693 302 668 b 259 402 271 534 266 497 l 253 326 b 182 248 236 286 204 247 b 172 337 177 248 169 280 b 187 509 174 393 182 461 b 188 673 194 574 202 650 b 120 705 175 693 146 708 b 31 461 65 699 38 608 b 159 198 25 335 68 202 b 254 238 199 196 233 218 b 239 136 252 213 244 152 b 172 39 221 80 199 46 b 99 86 139 31 121 36 b 89 109 95 96 95 104 b 59 106 79 118 67 114 b 70 29 41 87 56 48 b 192 -9 95 -6 143 -19 z "},"Z":{"ha":369,"x_min":0,"x_max":0,"o":"m 292 52 b 214 77 292 75 268 77 l 171 77 b 299 336 200 127 260 247 b 373 671 369 496 399 620 b 314 714 361 695 336 714 b 122 701 252 714 135 707 b 106 667 109 696 100 680 b 251 639 117 643 221 651 b 174 443 245 617 194 489 b 39 118 129 345 74 206 b 59 10 19 65 25 23 b 188 16 88 -1 148 9 b 292 52 272 31 292 32 z "},"[":{"ha":260,"x_min":0,"x_max":0,"o":"m 57 -3 b 220 19 78 -11 189 5 b 232 48 232 24 238 37 b 149 67 221 73 182 63 b 161 663 149 222 161 540 b 185 669 161 667 161 667 b 215 693 203 671 217 679 b 174 719 213 707 196 717 b 43 663 88 730 58 728 b 29 90 25 588 27 257 b 57 -3 29 38 34 5 z "},"\\":{"ha":328,"x_min":0,"x_max":0,"o":"m 67 696 b 24 643 39 696 24 675 b 62 484 24 617 45 538 b 181 146 70 460 135 273 b 289 -6 212 63 250 -30 b 289 90 307 6 306 30 b 158 534 241 262 202 384 b 67 696 120 663 105 696 z "},"]":{"ha":261,"x_min":0,"x_max":0,"o":"m 200 720 b 37 699 179 728 68 712 b 24 669 24 693 19 680 b 108 651 36 645 74 654 b 96 55 108 496 96 178 b 72 48 96 51 96 50 b 42 25 54 46 40 39 b 83 -2 43 10 61 1 b 214 55 169 -12 199 -10 b 228 627 231 129 230 461 b 200 720 228 680 223 712 z "},"^":{"ha":321,"x_min":0,"x_max":0,"o":"m 30 629 b 47 578 23 608 33 584 b 120 634 69 569 92 592 b 160 686 136 656 146 670 b 253 582 182 659 237 587 b 292 605 271 576 288 588 b 253 670 295 619 288 627 b 204 736 231 697 211 727 b 158 768 194 749 184 768 b 86 716 128 768 108 744 b 30 629 69 695 33 638 z "},"_":{"ha":774,"x_min":0,"x_max":0,"o":"m 49 -15 b 157 -19 60 -20 78 -20 b 417 -10 243 -17 330 -14 b 669 8 470 -7 654 7 b 729 26 704 11 717 14 b 735 64 741 40 741 54 b 667 84 723 83 706 87 b 199 59 565 78 314 66 b 57 50 149 56 66 52 b 49 -15 23 40 20 -2 z "},"`":{"ha":290,"x_min":0,"x_max":0,"o":"m 239 714 b 214 782 257 733 248 747 b 87 895 180 817 109 881 b 42 861 61 913 29 893 b 88 815 44 854 64 837 b 164 745 112 794 146 762 b 239 714 205 705 220 695 z "},"a":{"ha":550,"x_min":0,"x_max":0,"o":"m 341 456 l 341 456 l 336 444 l 323 449 b 38 268 186 506 83 404 b 111 75 12 186 43 95 b 292 170 193 52 263 131 b 305 -34 290 127 284 25 b 429 -94 318 -69 368 -127 b 526 28 453 -81 474 -65 b 619 212 546 66 589 155 b 674 331 649 271 674 320 b 644 344 674 341 651 347 l 644 344 b 576 250 632 339 622 328 b 477 68 546 197 505 115 b 422 -18 449 23 437 0 b 494 332 430 62 477 259 b 435 496 512 408 502 483 b 341 456 397 503 361 488 z m 307 374 b 312 374 308 374 310 374 b 303 292 310 359 305 315 b 204 160 278 257 225 181 b 187 148 196 153 192 151 b 199 202 187 155 190 173 b 307 374 229 293 283 372 z "},"b":{"ha":496,"x_min":0,"x_max":0,"o":"m 145 789 b 54 640 90 789 69 718 b 33 362 38 558 36 523 b 38 153 31 228 32 197 b 99 40 46 100 51 51 b 160 69 122 35 145 45 b 161 72 161 71 161 70 b 335 81 225 32 268 31 b 442 214 381 115 427 172 b 445 405 462 273 464 353 b 327 507 422 469 378 513 b 219 426 278 502 245 466 l 221 528 b 184 778 224 695 218 750 b 145 789 173 786 163 789 z m 231 107 b 192 115 221 104 197 106 b 203 246 186 134 200 216 b 308 431 209 320 291 424 b 302 285 313 420 311 342 b 231 107 288 197 264 126 z "},"c":{"ha":439,"x_min":0,"x_max":0,"o":"m 310 388 b 276 516 326 422 315 481 b 102 497 225 560 151 558 b 31 266 59 442 35 352 b 146 39 26 160 67 66 b 248 42 178 28 220 30 b 376 187 292 63 324 100 b 399 266 409 245 413 257 b 355 231 379 278 365 249 b 272 111 335 195 286 128 b 197 91 245 79 215 73 b 199 311 176 110 193 269 b 230 457 210 393 218 446 b 261 405 243 451 261 419 b 310 388 261 367 299 358 z "},"d":{"ha":501,"x_min":0,"x_max":0,"o":"m 387 750 b 344 730 366 750 356 745 b 280 459 314 686 286 555 b 139 436 238 475 189 474 b 40 103 59 376 5 217 b 159 1 60 41 108 -6 b 282 106 212 8 251 59 b 341 -2 289 56 300 15 b 419 57 365 -12 402 13 b 461 362 448 136 459 271 b 427 736 464 501 475 699 b 387 750 416 744 406 750 z m 277 396 b 275 218 276 351 275 260 b 178 78 255 153 193 81 b 183 237 172 88 174 163 b 231 384 190 298 200 353 b 277 396 246 397 262 399 z "},"e":{"ha":340,"x_min":0,"x_max":0,"o":"m 279 111 b 204 73 233 78 232 77 b 167 205 149 66 154 160 l 176 237 l 201 253 b 322 418 261 290 322 370 b 277 485 322 441 303 469 b 231 495 264 493 253 495 b 75 373 166 495 102 426 b 117 34 9 243 7 87 b 251 35 149 19 206 13 b 319 98 283 50 325 80 b 279 111 315 116 295 126 z m 274 413 b 194 303 271 374 222 326 b 274 413 207 340 239 393 z "},"f":{"ha":340,"x_min":0,"x_max":0,"o":"m 100 -31 b 182 130 181 -63 179 54 b 195 353 186 223 192 331 b 292 407 230 364 292 377 b 197 413 292 440 219 416 b 209 653 197 447 205 614 b 235 731 215 701 226 725 b 261 698 243 735 257 709 b 303 675 268 672 285 653 b 276 774 325 700 297 754 b 216 801 260 788 241 799 b 35 474 84 809 47 656 b 45 120 27 342 32 232 b 100 -31 56 16 72 -19 z "},"g":{"ha":478,"x_min":0,"x_max":0,"o":"m 72 298 b 121 94 43 193 61 109 b 173 96 137 90 154 90 b 263 189 202 104 238 143 l 262 164 b 251 44 260 135 256 80 b 150 -186 235 -84 194 -160 b 73 -191 124 -201 94 -199 b 28 -211 55 -185 28 -190 b 65 -248 28 -227 49 -242 b 378 3 214 -304 320 -155 b 432 219 407 77 425 156 b 416 440 442 311 437 409 b 331 468 398 467 362 479 b 307 474 325 465 322 465 b 205 476 280 489 234 490 b 72 298 150 450 92 371 z m 181 156 b 191 210 180 161 181 180 b 277 377 210 265 245 332 b 253 258 271 339 263 280 b 181 156 237 226 194 159 z "},"h":{"ha":429,"x_min":0,"x_max":0,"o":"m 282 140 b 367 57 286 110 316 30 b 388 184 388 69 386 145 b 381 412 390 244 391 368 b 301 507 368 470 353 509 b 186 361 258 504 212 416 b 212 675 194 447 211 610 b 204 740 212 712 211 726 b 111 767 186 773 144 785 b 40 550 79 748 57 674 b 52 121 25 444 32 189 b 103 70 63 85 76 70 b 159 115 129 70 139 85 b 279 361 175 141 246 293 b 276 318 278 351 277 333 b 282 140 272 211 277 175 z "},"i":{"ha":235,"x_min":0,"x_max":0,"o":"m 31 271 b 31 232 31 259 31 246 b 97 81 32 135 30 67 b 181 327 150 92 164 234 b 195 478 200 430 207 451 b 129 515 183 504 161 515 b 31 271 57 515 31 442 z m 81 661 b 102 614 77 641 87 623 b 148 692 143 589 204 663 b 81 661 117 706 87 691 z "},"j":{"ha":260,"x_min":0,"x_max":0,"o":"m 198 440 b 68 439 169 483 87 490 b 48 64 43 365 64 191 b -71 -218 27 -95 10 -136 b -121 -292 -95 -244 -131 -268 l -57 -292 b 61 -196 -33 -279 33 -225 b 214 184 172 -83 200 56 b 198 440 228 313 223 400 z m 131 709 b 111 609 84 701 77 635 b 183 629 132 594 166 599 b 131 709 203 664 185 718 z "},"k":{"ha":382,"x_min":0,"x_max":0,"o":"m 155 207 b 352 158 202 193 312 156 b 369 175 364 158 369 167 b 344 206 368 187 360 200 b 168 266 309 219 213 249 l 194 282 b 363 419 287 336 347 385 b 341 473 374 441 367 464 b 172 362 302 486 208 397 b 203 734 182 445 224 679 b 138 770 192 759 168 770 b 32 349 39 770 32 517 b 86 38 32 200 43 56 b 130 44 98 34 115 35 b 155 207 155 60 154 160 z "},"l":{"ha":282,"x_min":0,"x_max":0,"o":"m 37 256 b 172 5 52 92 102 -1 b 250 53 198 8 224 24 b 415 363 273 79 434 350 b 370 357 399 371 385 374 b 190 78 346 324 231 69 b 183 260 173 81 179 143 b 212 709 189 476 215 649 b 177 785 210 748 200 771 b 106 778 154 797 126 794 b 32 406 64 738 37 588 b 37 256 31 325 34 294 z "},"m":{"ha":646,"x_min":0,"x_max":0,"o":"m 434 143 b 526 -33 441 82 463 -22 b 633 56 564 -40 589 -22 b 766 339 647 82 766 330 b 732 343 766 345 742 346 l 732 343 b 634 171 717 335 703 313 b 559 28 604 107 575 52 b 578 187 559 51 564 104 b 532 453 595 295 593 420 b 386 375 475 484 427 446 l 386 381 b 293 529 386 449 362 530 b 199 454 245 529 221 498 b 128 533 197 502 175 533 b 89 514 108 533 101 527 b 37 146 17 438 29 251 b 101 40 42 78 58 40 b 169 134 142 40 163 75 b 205 321 179 230 185 264 b 255 434 226 383 238 411 b 258 152 256 352 254 229 b 300 70 259 120 258 70 b 372 179 343 70 355 104 b 445 357 388 252 412 321 b 434 143 438 295 429 201 z "},"n":{"ha":481,"x_min":0,"x_max":0,"o":"m 539 188 b 576 324 587 275 598 312 b 564 326 572 325 568 326 b 451 148 541 326 521 267 b 390 51 426 105 408 77 b 396 175 390 83 391 122 b 381 487 404 268 413 431 b 291 509 360 524 314 525 b 193 379 244 475 213 423 b 191 456 196 407 199 440 b 99 478 174 487 132 494 b 55 428 80 468 64 452 b 31 261 41 391 31 326 b 102 44 31 136 54 44 b 157 109 140 45 154 93 b 238 337 165 157 199 262 b 284 417 255 370 271 397 b 273 200 278 370 272 282 b 354 -39 275 54 295 -28 b 539 188 411 -48 473 64 z "},"o":{"ha":400,"x_min":0,"x_max":0,"o":"m 146 511 b 55 401 113 493 75 450 b 51 139 24 321 22 228 b 132 49 64 99 93 68 b 322 163 232 1 292 89 b 335 481 372 298 377 432 b 146 511 296 524 210 544 z m 289 442 b 290 257 305 417 312 361 b 228 103 275 181 250 123 b 195 97 212 88 202 89 l 195 98 b 183 221 179 112 178 180 b 248 431 196 304 228 396 b 289 442 263 455 278 454 z "},"p":{"ha":496,"x_min":0,"x_max":0,"o":"m 214 384 b 112 470 214 452 169 498 b 38 334 75 452 53 409 b 48 -165 25 265 30 14 b 95 -292 56 -244 76 -282 b 178 -223 143 -318 172 -266 b 180 21 189 -136 180 -59 b 278 34 218 22 252 27 b 459 333 369 58 465 210 b 295 471 453 435 388 519 b 214 382 267 457 239 425 z m 184 75 b 205 240 185 131 190 189 b 333 427 229 320 297 416 b 353 384 346 431 351 402 b 243 81 373 224 322 119 b 184 75 232 76 206 74 z "},"q":{"ha":453,"x_min":0,"x_max":0,"o":"m 55 321 b 86 31 27 237 4 70 b 253 169 143 4 184 54 l 266 190 b 261 -36 262 123 260 60 b 268 -198 261 -138 264 -160 b 330 -294 273 -245 286 -299 b 378 -153 374 -289 370 -243 b 402 153 383 -88 387 -1 b 405 408 416 299 418 381 b 354 439 396 424 373 439 b 312 422 340 439 322 432 b 308 427 312 422 309 425 b 218 466 288 450 261 466 b 55 321 143 467 87 416 z m 276 300 b 225 198 271 270 267 262 b 161 106 201 162 179 128 b 136 84 148 90 140 85 b 137 98 136 85 135 90 b 260 343 155 201 207 305 b 270 332 262 341 266 336 b 276 300 283 317 281 331 z "},"r":{"ha":385,"x_min":0,"x_max":0,"o":"m 92 -6 b 147 21 118 -17 136 -2 b 171 158 159 46 171 129 b 262 304 171 179 230 271 b 352 370 279 321 307 342 b 390 429 383 390 401 412 b 374 436 387 433 381 435 b 253 389 358 437 309 428 b 201 339 232 375 215 357 b 142 468 219 427 209 461 b 34 284 77 474 44 377 b 92 -6 24 190 32 21 z "},"s":{"ha":363,"x_min":0,"x_max":0,"o":"m 313 397 b 324 486 325 411 332 445 b 169 593 311 541 256 604 b 30 418 76 581 23 503 b 111 233 35 352 66 302 b 168 2 165 151 203 50 b 114 -16 146 -25 128 -26 b 44 53 86 3 89 79 b 46 -22 24 42 30 5 b 304 53 112 -120 270 -54 b 222 296 328 130 283 200 b 197 512 185 353 153 485 b 260 429 243 536 256 476 b 313 397 263 393 291 366 z "},"t":{"ha":344,"x_min":0,"x_max":0,"o":"m 79 648 b 76 606 79 642 78 628 b 66 451 75 588 70 523 b 70 111 58 300 62 180 b 220 -92 86 -25 118 -104 b 360 71 298 -83 332 12 b 453 344 405 164 490 329 b 392 278 432 353 422 337 b 300 72 374 241 329 130 b 220 -22 251 -15 228 -52 b 217 55 218 -8 217 16 b 249 574 218 230 248 444 l 249 670 l 275 674 b 316 714 311 680 325 694 b 267 719 312 726 280 719 b 244 728 243 718 247 713 b 154 800 235 771 205 802 b 89 722 113 798 93 751 b 56 702 88 709 89 707 b -14 679 14 697 -14 694 b 44 647 -14 663 -5 642 b 79 648 66 648 76 649 z "},"u":{"ha":454,"x_min":0,"x_max":0,"o":"m 374 -14 b 508 179 407 -3 431 33 b 579 327 536 232 579 318 b 548 344 579 336 564 350 b 487 238 535 339 504 271 b 376 51 465 192 410 96 l 378 78 b 406 454 384 184 434 380 b 350 489 397 477 376 488 b 289 451 325 490 304 476 b 251 304 272 421 257 350 b 210 169 243 246 234 225 b 171 109 195 134 179 114 b 171 168 168 125 170 144 b 175 459 174 251 202 428 b 75 468 151 487 111 501 b 42 156 27 423 21 265 b 153 51 57 85 106 51 b 255 145 197 51 227 80 b 261 157 257 150 259 152 b 374 -14 268 57 288 -41 z "},"v":{"ha":338,"x_min":0,"x_max":0,"o":"m 94 94 b 198 39 114 55 141 11 b 350 407 276 78 329 304 b 365 553 367 491 367 546 b 286 554 357 580 294 597 b 193 158 263 430 229 282 l 192 156 l 190 187 b 158 444 175 395 173 416 b 43 448 132 490 64 489 b 94 94 5 366 62 156 z "},"w":{"ha":593,"x_min":0,"x_max":0,"o":"m 63 121 b 161 66 80 90 108 51 b 265 193 211 80 238 140 b 378 81 280 140 312 77 b 485 150 424 83 451 106 b 570 503 559 248 589 403 b 458 493 556 575 443 557 b 403 169 482 394 441 250 b 373 129 385 133 375 128 b 347 238 358 140 351 163 b 316 354 344 314 339 339 b 261 353 299 363 279 364 b 247 302 246 342 247 331 b 210 193 246 265 239 252 b 157 121 194 162 164 116 b 157 184 154 123 152 148 b 197 465 168 264 210 423 b 69 472 179 520 96 509 b 63 121 15 391 22 196 z "},"x":{"ha":361,"x_min":0,"x_max":0,"o":"m 122 106 l 133 129 b 254 50 160 77 203 43 b 389 160 286 54 320 65 b 493 337 467 273 495 314 b 446 343 491 359 456 357 b 270 116 439 332 295 138 b 240 243 260 129 243 215 b 255 326 232 303 227 284 b 358 515 290 378 358 501 b 341 528 358 522 352 528 b 301 496 329 527 316 516 b 220 370 289 477 236 395 b 186 491 214 414 202 468 b 79 515 163 525 109 539 b 56 433 58 499 53 474 b 104 196 59 395 93 232 l 110 180 b 53 89 93 151 74 126 b 38 18 30 53 18 29 b 122 106 72 3 84 37 z "},"y":{"ha":465,"x_min":0,"x_max":0,"o":"m 135 -244 b 293 -170 198 -246 258 -211 b 383 40 323 -133 361 -44 b 418 456 418 175 440 411 b 327 482 402 486 358 500 b 275 306 298 463 281 400 b 252 230 272 260 272 269 b 170 146 226 181 181 138 b 200 327 164 150 164 169 b 205 466 209 368 227 434 b 102 492 180 499 139 510 b 77 122 21 452 3 199 b 264 153 153 43 224 103 b 200 -117 251 45 238 -45 b 130 -178 186 -141 154 -170 b 135 -244 92 -194 83 -243 z "},"z":{"ha":396,"x_min":0,"x_max":0,"o":"m 135 63 b 352 96 190 70 322 80 b 351 131 369 105 366 124 b 182 125 339 137 232 129 b 228 182 190 136 210 159 b 349 372 309 282 337 320 b 329 459 359 409 353 436 b 251 468 310 477 290 478 b 152 453 239 465 194 458 b 50 418 66 442 47 441 b 154 392 54 394 77 392 b 217 391 181 392 203 391 b 99 217 201 365 149 288 b 28 92 48 143 28 112 b 135 63 27 43 91 56 z "},"{":{"ha":313,"x_min":0,"x_max":0,"o":"m 152 6 b 231 -3 177 -11 204 -12 b 258 28 248 3 263 14 b 223 43 254 39 240 43 b 189 91 199 43 189 52 b 194 143 189 104 191 122 b 154 338 208 246 192 291 b 204 555 193 381 206 419 b 266 738 203 656 206 736 b 285 763 285 739 293 751 b 221 779 274 780 244 783 b 74 474 139 766 83 666 b 44 355 71 391 76 383 b 67 292 8 323 20 296 b 92 205 98 289 98 292 b 152 6 84 107 99 42 z "},"|":{"ha":164,"x_min":0,"x_max":0,"o":"m 69 721 b 29 540 32 710 28 674 b 33 77 31 383 29 255 b 62 -14 35 15 41 -9 b 120 162 112 -28 117 103 b 135 520 128 297 135 495 b 126 683 136 577 133 659 b 69 721 117 714 96 729 z "},"}":{"ha":313,"x_min":0,"x_max":0,"o":"m 158 774 b 79 783 133 791 104 791 b 52 752 61 777 47 766 b 87 737 56 741 70 737 b 121 690 111 737 121 728 b 117 637 121 676 119 659 b 156 442 103 535 118 490 b 106 225 117 400 104 361 b 45 42 107 124 104 44 b 25 17 25 41 18 29 b 89 1 36 1 66 -2 b 236 307 171 15 228 114 b 266 425 240 390 234 397 b 243 488 302 457 291 484 b 219 575 213 491 212 488 b 158 774 227 674 211 738 z "},"~":{"ha":400,"x_min":0,"x_max":0,"o":"m 58 181 b 111 214 86 169 97 178 b 147 272 121 241 140 267 b 181 241 152 268 167 256 b 289 187 219 200 252 182 b 363 318 343 193 381 251 b 332 346 358 336 346 350 b 319 322 322 344 319 334 b 286 260 319 308 295 264 b 236 293 275 254 269 255 b 140 358 198 337 170 358 b 70 322 113 358 91 347 b 58 181 28 275 12 199 z "}}}
